<?xml version="1.0" encoding="utf-8"?>
<!-- Generator: Adobe Illustrator 19.0.0, SVG Export Plug-In . SVG Version: 6.00 Build 0)  -->
<svg version="1.1" id="Layer_1" xmlns="http://www.w3.org/2000/svg" xmlns:xlink="http://www.w3.org/1999/xlink" x="0px" y="0px"
	 viewBox="-354 640.6 369.4 71.4" style="enable-background:new -354 640.6 369.4 71.4;" xml:space="preserve">
<style type="text/css">
	.st0{fill:#FFFFFF;}
</style>
<g>
	<path d="M-293.1,651.1c-6.7-6.7-15.7-10.5-25.2-10.5c-9.5,0-18.5,3.7-25.2,10.5c-6.7,6.7-10.5,15.7-10.5,25.2
		c0,9.5,3.7,18.5,10.5,25.2c6.7,6.7,15.7,10.5,25.2,10.5c9.5,0,18.5-3.7,25.2-10.5c6.7-6.7,10.5-15.7,10.5-25.2
		S-286.3,657.8-293.1,651.1z M-291.6,676.3c0,14.7-12,26.7-26.7,26.7c-14.7,0-26.7-12-26.7-26.7c0-14.7,12-26.7,26.7-26.7
		C-303.6,649.6-291.6,661.6-291.6,676.3z"/>
	<path d="M-298,675.8c-5.3-1.2-13.6-3.2-19.4-0.3c2-3.4,3.2-7.6,1.2-12.2l-4.8-11l-0.8,3.5c-0.6,2.4-1.6,4.5-2.6,6.6
		c-2,4.1-3.9,7.9-1.7,12.9c0.7,1.7,2,3.5,2.6,4.4l0.5,0.7c-0.8,0.7-1.4,1.3-1.4,1.3l-1.6,1.4l2.1,0.7c2.8,0.9,5.4,1.3,7.9,1.3
		c7.8,0,13.6-3.7,16.8-5.8c0.7-0.5,1.3-0.8,1.8-1.1l2.9-1.5L-298,675.8z"/>
	<path class="st0" d="M-321,681.1c0,0,0.8-0.7,1.8-1.7c0.1-0.1,0.3-0.2,0.4-0.2c3.9-1.9,6.8-0.8,11-0.3c-0.4,0-0.7-0.2-1.1-0.3
		c-0.4-0.1-0.7-0.2-1.1-0.3c-0.7-0.2-1.3-0.3-2-0.4c-1.3-0.2-2.5-0.3-3.8-0.3c-0.8,0-1.7,0.2-2.5,0.6c-0.7,0.3-1.2,0.9-1.7,1.4
		c-0.2,0.2-0.4,0.4-0.6,0.6C-320.5,680.6-320.7,680.9-321,681.1z"/>
	<path class="st0" d="M-321.9,678.9c0.1-0.2,0.3-0.4,0.4-0.6c2-3.4,1.2-6.2,1-10.1c0.8,4,0.9,6.6,0.1,10.3
		C-320.3,678.4-320.8,679.5-321.9,678.9z"/>
	<g>
		<path d="M-261.7,651.8h25.2c12.1,0,14.7,6.8,14.7,11.5c0,4.6-2.3,7.2-5.7,9c4.1,1.4,8,4.7,8,11.5c0,9.2-8,14-16.1,14h-26.1V651.8z
			 M-247.5,669.8h7.5c3,0,4.8-0.8,4.8-3.8c0-2.3-1.9-3.2-4.8-3.2h-7.5V669.8z M-247.5,686.9h8.3c3,0,5.5-0.8,5.5-4.4
			c0-2.7-1.6-4.2-5-4.2h-8.9V686.9z"/>
		<path d="M-202.3,660.8h-12.8v-9h12.8V660.8z M-215.1,664.4h12.8v33.5h-12.8V664.4z"/>
		<path d="M-179.5,698.7c-12.6,0-18.2-8.3-18.2-17.6c0-9.3,5.7-17.5,18.2-17.5s18.2,8.3,18.2,17.5
			C-161.3,690.4-166.9,698.7-179.5,698.7z M-179.5,672.9c-4.8,0-5.5,4.7-5.5,8.3c0,3.5,0.6,8.3,5.5,8.3s5.5-4.8,5.5-8.3
			C-174,677.6-174.7,672.9-179.5,672.9z"/>
		<path d="M-156.8,651.8h35.6v11.8h-21.4v5.7h18.4v11h-18.4v17.5h-14.2V651.8z"/>
		<path d="M-85,690.4c0,2.5,0.1,5.4,1.5,7.5h-13c-0.3-0.9-0.5-2.3-0.5-3.2h-0.1c-2.7,3.1-6.6,4-10.8,4c-6.4,0-11.8-3.1-11.8-10.1
			c0-10.6,12.4-10.2,18.9-11.4c1.7-0.3,3.5-0.8,3.5-3c0-2.3-2.1-3.1-4.2-3.1c-3.9,0-4.7,2-4.8,3.4h-11.9c0.2-4.7,2.5-7.5,5.8-9
			c3.2-1.5,7.5-1.9,11.4-1.9c16,0,15.9,6.6,15.9,13.1V690.4z M-97.3,682.9c-1.5,0.8-3.3,1.2-5,1.6c-2.8,0.6-4.3,1.4-4.3,3.6
			c0,1.5,1.7,3.1,4,3.1c2.9,0,5.2-1.7,5.4-5.2V682.9z"/>
		<path d="M-57.9,677.1c-0.1-1.4-0.6-2.5-1.4-3.2c-0.8-0.7-1.9-1.1-3.2-1.1c-4.9,0-5.6,4.3-5.6,8.3s0.7,8.3,5.6,8.3
			c2.8,0,4.7-2.3,5-4.9h12.2c-0.6,4.5-2.7,8.1-5.8,10.5c-3,2.4-7.1,3.7-11.6,3.7c-10.1,0-18.1-7-18.1-17.5s8.1-17.6,18.1-17.6
			c8.8,0,16.2,4.3,17,13.5H-57.9z"/>
		<path d="M-26.1,664.4h6.8v7.9h-6.8V684c0,3.1,0.7,4.4,3.9,4.4c1,0,1.9-0.1,2.9-0.2v9.7c-2.6,0-5.5,0.4-8.2,0.4
			c-5.4,0-11.4-0.8-11.4-10v-16h-5.7v-7.9h5.7v-10.2h12.8V664.4z"/>
		<path d="M2.9,674.2c-0.1-1.1-0.6-1.9-1.5-2.5c-0.8-0.6-1.8-1-2.8-1c-1.8,0-3.9,0.4-3.9,2.6c0,1,0.8,1.4,1.5,1.7
			c2.1,0.9,7,1.2,11.2,2.6c4.3,1.4,8,3.9,8,9.3c0,9.3-8.9,11.8-17,11.8c-7.9,0-16.5-3.2-16.7-11.8h12.2c0.1,1.2,0.6,2.1,1.5,3
			c0.6,0.6,1.9,1,3.4,1c1.7,0,4.3-0.6,4.3-2.6s-1.1-2.5-7-3.5c-9.7-1.7-13.7-4.8-13.7-10.5c0-8.4,9.1-10.6,15.8-10.6
			c7.2,0,15.9,2,16.2,10.6H2.9z"/>
	</g>
</g>
</svg>
