<?xml version="1.0" encoding="utf-8"?>
<!-- Generator: Adobe Illustrator 19.0.0, SVG Export Plug-In . SVG Version: 6.00 Build 0)  -->
<svg version="1.1" id="Layer_1" xmlns="http://www.w3.org/2000/svg" xmlns:xlink="http://www.w3.org/1999/xlink" x="0px" y="0px"
	 viewBox="0 0 242.3 46" style="enable-background:new 0 0 242.3 46;" xml:space="preserve">
<style type="text/css">
	.st0{fill:#222021;}
</style>
<g id="XMLID_10_">
	<g id="XMLID_46_">
		<path id="XMLID_47_" class="st0" d="M23,0C10.3,0,0,10.3,0,23s10.3,23,23,23s23-10.3,23-23S35.7,0,23,0z M23,42.5
			C12.3,42.5,3.5,33.7,3.5,23C3.5,12.3,12.3,3.5,23,3.5c10.7,0,19.5,8.7,19.5,19.5C42.5,33.7,33.7,42.5,23,42.5z"/>
	</g>
</g>
<path id="XMLID_2_" class="st0" d="M39.6,26.8c-0.1-0.2-0.1-0.6-0.3-0.9c-0.1-0.4-0.3-0.9-0.6-1.3c-0.3-0.5-0.6-0.9-1-1.4
	c-0.4-0.5-0.9-0.9-1.5-1.4c-0.6-0.4-1.2-0.8-1.9-1.1c-0.7-0.3-1.4-0.5-2.1-0.8c-0.7-0.2-1.5-0.3-2.2-0.3c-0.7,0-1.5,0-2.2,0.1
	c-0.7,0.1-1.4,0.2-2.1,0.4c-1.3,0.4-2.5,1.1-3.5,1.8c-0.5,0.4-0.9,0.7-1.3,1.1c-0.4,0.4-0.7,0.7-0.9,1.1c-0.1,0.1-0.2,0.3-0.3,0.4
	c0.2,0,0.5-0.1,0.7-0.1c1.3-0.2,3-0.5,4.7-0.5c0.9,0,1.7,0,2.5,0c0.4,0,0.8,0.1,1.2,0.1c0.4,0.1,0.7,0.1,1,0.2
	c0.3,0.1,0.6,0.2,0.9,0.2c0.3,0.1,0.5,0.2,0.6,0.2c0.3,0.1,0.5,0.2,0.5,0.2s-0.2-0.1-0.6-0.2c-0.2,0-0.4-0.1-0.6-0.2
	c-0.3-0.1-0.5-0.1-0.9-0.2c-0.3,0-0.7-0.1-1-0.1c-0.4,0-0.7,0-1.1,0c-0.8,0-1.6,0.1-2.5,0.2c-1.7,0.2-3.3,0.6-4.6,0.9
	c-0.3,0.1-0.6,0.2-0.9,0.3c0.2,0.1,0.4,0.3,0.6,0.5c0.3,0.2,0.7,0.5,1.1,0.7c0.4,0.3,0.9,0.5,1.4,0.8c0.5,0.3,1,0.5,1.5,0.7
	c0.5,0.2,1.1,0.4,1.6,0.6c0.6,0.2,1.1,0.3,1.7,0.4c0.6,0.1,1.1,0.2,1.7,0.2c1.1,0.1,2.2,0,3.3-0.1c0.5-0.1,1.1-0.2,1.6-0.3
	c0.5-0.1,1-0.3,1.5-0.4c0.5-0.1,1-0.3,1.4-0.4c0.5-0.2,0.9-0.3,1.2-0.4c0.4-0.1,0.7-0.2,0.9-0.3c0.2-0.1,0.3-0.1,0.3-0.1
	S39.6,27,39.6,26.8z"/>
<path id="XMLID_1_" class="st0" d="M21.5,20.2c0-0.9,0-1.7,0-2.5c0-0.4,0.1-0.8,0.1-1.2c0.1-0.4,0.1-0.7,0.2-1
	c0.1-0.3,0.2-0.6,0.2-0.9c0.1-0.3,0.2-0.5,0.2-0.6c0.1-0.3,0.2-0.5,0.2-0.5s-0.1,0.2-0.2,0.6c-0.1,0.2-0.1,0.4-0.2,0.6
	c-0.1,0.3-0.1,0.5-0.2,0.9c0,0.3-0.1,0.7-0.1,1c0,0.4,0,0.7,0,1.1c0,0.8,0.1,1.6,0.2,2.5c0,0.4,0.1,0.7,0.2,1
	c1.4-0.9,2.9-1.6,4.3-2.1c0.1-0.5,0.2-0.9,0.3-1.4c0.1-0.6,0.2-1.1,0.2-1.7c0.1-1.1,0-2.2-0.1-3.3c-0.1-0.5-0.2-1.1-0.3-1.6
	c-0.1-0.5-0.3-1-0.4-1.5c-0.1-0.5-0.3-1-0.4-1.4c-0.2-0.5-0.3-0.9-0.4-1.2c-0.1-0.4-0.2-0.7-0.3-0.9c-0.1-0.2-0.1-0.3-0.1-0.3
	s-0.1,0-0.4,0.1C24.3,6,24,6,23.6,6.2c-0.4,0.1-0.9,0.3-1.3,0.6c-0.5,0.3-0.9,0.6-1.4,1c-0.5,0.4-0.9,0.9-1.4,1.5
	c-0.4,0.6-0.8,1.2-1.1,1.9c-0.3,0.7-0.5,1.4-0.7,2.1c-0.2,0.7-0.3,1.5-0.3,2.2c0,0.7,0,1.5,0.1,2.2c0.1,0.7,0.2,1.4,0.4,2.1
	c0.4,1.3,1.1,2.5,1.8,3.5c0,0,0.1,0.1,0.1,0.1c0.6-0.6,1.2-1.2,1.9-1.7C21.5,21.2,21.5,20.7,21.5,20.2z"/>
<g id="XMLID_116_">
	<path id="XMLID_117_" class="st0" d="M82.6,31.1c0,1.4-0.3,2.7-0.9,3.7c-0.6,1-1.4,1.9-2.5,2.5c-1.1,0.7-2.3,1.1-3.7,1.5
		c-1.4,0.3-2.9,0.5-4.4,0.5H55.4v-32h18.6c1.1,0,2.1,0.2,3,0.7c0.9,0.5,1.7,1.1,2.3,1.9c0.6,0.8,1.1,1.6,1.5,2.6c0.3,1,0.5,2,0.5,3
		c0,1.5-0.4,2.9-1.1,4.3c-0.8,1.4-1.9,2.4-3.4,3.1c1.8,0.5,3.3,1.5,4.3,2.8C82,27,82.6,28.8,82.6,31.1z M64.1,14.8v4.9h6
		c0.6,0,1.1-0.2,1.6-0.5c0.5-0.3,0.7-1,0.7-2c0-0.9-0.2-1.5-0.6-1.9c-0.4-0.4-0.9-0.6-1.5-0.6H64.1z M73.6,29.3c0-0.8-0.2-1.4-0.6-2
		c-0.4-0.5-1-0.8-1.6-0.8h-7.3v5.4h6.9c0.7,0,1.3-0.2,1.8-0.7C73.4,30.8,73.6,30.1,73.6,29.3z"/>
	<path id="XMLID_121_" class="st0" d="M85.8,13.6V6.4h8.6v7.2H85.8z M85.8,39.3V15.6h8.6v23.7H85.8z"/>
	<path id="XMLID_124_" class="st0" d="M110.4,39.7c-2.1,0-4-0.3-5.6-1c-1.6-0.7-3-1.6-4.1-2.7c-1.1-1.1-1.9-2.4-2.5-3.9
		c-0.6-1.5-0.8-3-0.8-4.7c0-1.6,0.3-3.2,0.8-4.7c0.6-1.5,1.4-2.8,2.5-3.9c1.1-1.1,2.4-2,4.1-2.7c1.6-0.7,3.5-1,5.6-1
		c2.1,0,4,0.3,5.6,1c1.6,0.7,3,1.6,4.1,2.7c1.1,1.1,1.9,2.4,2.5,3.9c0.6,1.5,0.8,3,0.8,4.7c0,1.6-0.3,3.2-0.8,4.7
		c-0.6,1.5-1.4,2.8-2.5,3.9c-1.1,1.1-2.5,2-4.1,2.7C114.3,39.4,112.5,39.7,110.4,39.7z M106.2,27.4c0,1.6,0.4,2.8,1.2,3.7
		c0.8,0.9,1.8,1.4,3,1.4c1.2,0,2.2-0.5,3-1.4c0.8-0.9,1.2-2.1,1.2-3.7c0-1.6-0.4-2.8-1.2-3.7c-0.8-0.9-1.8-1.4-3-1.4
		c-1.2,0-2.2,0.5-3,1.4C106.6,24.6,106.2,25.8,106.2,27.4z"/>
	<path id="XMLID_127_" class="st0" d="M126.6,39.3v-32h21.9v7.7h-13.2v5.3h10.7v7.1h-10.7v11.9H126.6z"/>
	<path id="XMLID_129_" class="st0" d="M157.1,39.7c-1.2,0-2.3-0.2-3.3-0.6c-1-0.4-1.9-0.9-2.6-1.6c-0.7-0.7-1.3-1.5-1.7-2.4
		c-0.4-0.9-0.6-1.9-0.6-3c0-1.2,0.3-2.3,0.8-3.3c0.5-1,1.2-1.8,2.1-2.6c0.9-0.7,2-1.3,3.2-1.7c1.2-0.4,2.6-0.6,4.1-0.6
		c1.9,0,3.5,0.3,4.8,0.9v-0.7c0-1.1-0.3-1.9-1-2.5c-0.6-0.5-1.7-0.8-3.1-0.8c-1.4,0-2.6,0.2-3.7,0.7c-1.1,0.4-2.3,1.1-3.6,1.9
		l-2.5-5.3c3.1-2,6.7-3,10.7-3c3.8,0,6.7,0.8,8.7,2.5c2,1.7,3.1,4.2,3.1,7.6v4.6c0,0.8,0.1,1.4,0.4,1.7c0.2,0.3,0.7,0.5,1.3,0.6v7.2
		c-0.7,0.1-1.3,0.3-2,0.3c-0.6,0.1-1.2,0.1-1.6,0.1c-1.5,0-2.7-0.3-3.5-0.8c-0.8-0.6-1.3-1.4-1.6-2.5l-0.2-0.9
		c-1.1,1.4-2.3,2.4-3.6,3.1C160.1,39.4,158.6,39.7,157.1,39.7z M159.7,33.6c0.5,0,1-0.1,1.6-0.2c0.5-0.2,1-0.4,1.4-0.7
		c0.3-0.2,0.6-0.5,0.8-0.8c0.2-0.3,0.3-0.6,0.3-0.9v-1.8c-0.5-0.2-1.1-0.3-1.7-0.5c-0.6-0.1-1.1-0.2-1.6-0.2c-1.1,0-1.9,0.3-2.6,0.8
		c-0.7,0.5-1,1.2-1,1.9c0,0.7,0.3,1.2,0.8,1.6C158.2,33.4,158.8,33.6,159.7,33.6z"/>
	<path id="XMLID_132_" class="st0" d="M175.8,27.4c0-1.6,0.3-3.2,0.9-4.7c0.6-1.5,1.4-2.8,2.5-3.9c1.1-1.1,2.5-2,4.1-2.7
		c1.6-0.7,3.5-1,5.6-1c2.9,0,5.3,0.6,7.2,1.8c1.9,1.2,3.4,2.7,4.3,4.6l-8.3,2.5c-0.8-1.2-1.9-1.8-3.3-1.8c-1.2,0-2.2,0.4-3,1.3
		c-0.8,0.9-1.2,2.1-1.2,3.8c0,1.6,0.4,2.9,1.2,3.8c0.8,0.9,1.8,1.3,3,1.3c1.4,0,2.5-0.6,3.3-1.8l8.3,2.5c-1,1.9-2.4,3.4-4.3,4.6
		c-1.9,1.2-4.3,1.8-7.2,1.8c-2.1,0-4-0.3-5.6-1c-1.6-0.7-3-1.6-4.1-2.7c-1.1-1.1-1.9-2.4-2.5-3.9C176.1,30.6,175.8,29,175.8,27.4z"
		/>
	<path id="XMLID_134_" class="st0" d="M219.7,38c-1.2,0.5-2.5,0.9-3.9,1.3c-1.4,0.3-2.7,0.5-4,0.5c-1,0-1.9-0.1-2.7-0.4
		c-0.9-0.2-1.6-0.6-2.3-1.2c-0.6-0.5-1.2-1.2-1.5-2.1c-0.4-0.9-0.6-2-0.6-3.2V22h-2.9v-6.4h2.9V8.1h8.6v7.4h4.6V22h-4.6v7.8
		c0,0.8,0.2,1.3,0.5,1.6c0.3,0.3,0.8,0.5,1.4,0.5c0.4,0,0.9-0.1,1.4-0.2c0.5-0.1,1.1-0.3,1.6-0.6L219.7,38z"/>
	<path id="XMLID_136_" class="st0" d="M231.9,39.7c-2.1,0-4.1-0.3-6.1-1c-2-0.7-3.7-1.7-5-2.9l2.9-5.1c1.5,1,2.9,1.8,4.3,2.3
		s2.6,0.8,3.8,0.8c1.2,0,1.8-0.4,1.8-1.1c0-0.4-0.2-0.8-0.7-1.1c-0.5-0.3-1.4-0.6-2.7-1c-1.7-0.5-3.1-1-4.2-1.4
		c-1.1-0.5-2-1-2.7-1.5c-0.7-0.5-1.2-1.1-1.5-1.8c-0.3-0.7-0.5-1.4-0.5-2.3c0-1.2,0.2-2.3,0.7-3.3c0.5-1,1.1-1.9,2-2.7
		c0.9-0.8,1.9-1.3,3.1-1.7c1.2-0.4,2.5-0.6,3.9-0.6c1.7,0,3.4,0.2,5,0.7c1.6,0.5,3.2,1.4,4.8,2.7l-3.2,5.1c-1.5-1-2.7-1.6-3.7-2
		s-1.9-0.6-2.8-0.6c-0.5,0-0.9,0.1-1.3,0.3c-0.3,0.2-0.5,0.5-0.5,0.9c0,0.5,0.2,0.8,0.7,1.1c0.5,0.3,1.4,0.6,2.8,1
		c1.7,0.5,3.2,0.9,4.3,1.4c1.2,0.5,2.1,1,2.8,1.6s1.2,1.2,1.5,2c0.3,0.7,0.5,1.6,0.5,2.5c0,1.2-0.2,2.3-0.7,3.3s-1.1,1.8-2,2.5
		c-0.9,0.7-1.9,1.2-3.1,1.6C234.8,39.5,233.4,39.7,231.9,39.7z"/>
</g>
</svg>
