<?xml version="1.0" encoding="utf-8"?>
<!-- Generator: Adobe Illustrator 19.0.0, SVG Export Plug-In . SVG Version: 6.00 Build 0)  -->
<svg version="1.1" id="Layer_1" xmlns="http://www.w3.org/2000/svg" xmlns:xlink="http://www.w3.org/1999/xlink" x="0px" y="0px"
	 viewBox="-258 241 274 132" style="enable-background:new -258 241 274 132;" xml:space="preserve">
<style type="text/css">
	.st0{fill:#FFFFFF;}
</style>
<rect x="-242" y="301" class="st0" width="243.3" height="8.9"/>
<rect x="-242" y="331.5" class="st0" width="243.3" height="1.8"/>
<rect x="-242" y="355.2" class="st0" width="243.3" height="5"/>
<path class="st0" d="M15.8,373h-273.6V241.3H15.8V373z M-256,371.2H14V243.1h-270V371.2z"/>
<path class="st0" d="M-202.2,257.4c-4.1-4.1-9.6-6.4-15.4-6.4s-11.3,2.3-15.4,6.4c-4.1,4.1-6.4,9.6-6.4,15.4s2.3,11.3,6.4,15.4
	c4.1,4.1,9.6,6.4,15.4,6.4s11.3-2.3,15.4-6.4c4.1-4.1,6.4-9.6,6.4-15.4S-198,261.5-202.2,257.4z M-200.6,272.8c0,9.4-7.6,17-17,17
	s-17-7.6-17-17s7.6-17,17-17C-208.2,255.9-200.6,263.5-200.6,272.8z"/>
<path class="st0" d="M-205,272.8c-3.9-0.9-10.4-2.4-13.7,1.2l-1,1.1l-0.1,0.1l-0.1,0.1c-0.7,0.7-1.3,1.2-1.3,1.2l-0.7,0.6l0.9,0.3
	c1.8,0.6,3.4,0.8,4.9,0.8c4.7,0,8.2-2.2,10.3-3.6c0.5-0.3,0.8-0.5,1.1-0.7l1.2-0.6L-205,272.8z M-217.9,274.6
	c-0.1,0.1-0.2,0.1-0.3,0.2c-0.6,0.6-1.1,1-1.1,1c0.1-0.1,0.3-0.3,0.4-0.5c0.1-0.1,0.2-0.3,0.4-0.4c0.3-0.4,0.6-0.7,1.1-0.9
	c0.5-0.2,1-0.3,1.5-0.3c0.8,0,1.6,0,2.4,0.2c0.4,0.1,0.8,0.2,1.2,0.2c0.2,0.1,0.4,0.1,0.7,0.2c0.2,0.1,0.4,0.2,0.7,0.2
	C-213.6,274.1-215.4,273.4-217.9,274.6z"/>
<path class="st0" d="M-216.5,264.9l-2.7-6.2l-0.4,1.5c-0.4,1.5-1,2.9-1.7,4.2c-1.2,2.5-2.4,4.8-1.1,7.8c0.4,1,1.2,2.1,1.6,2.7
	l0.4,0.5l0.3-0.4l-0.1,1.3l1.4-1.8C-216.9,272.1-214.8,268.7-216.5,264.9z M-218.9,274.1c0,0-0.3,0.7-0.9,0.3
	c0.1-0.1,0.2-0.2,0.3-0.4c1.3-2.1,0.8-3.8,0.6-6.3C-218.4,270.2-218.3,271.9-218.9,274.1z"/>
<g transform="translate(75 16)">
	<path class="st0" d="M-257.4,241.6h15.7c7.5,0,9.1,4.3,9.1,7.2s-1.4,4.5-3.5,5.6c2.6,0.9,5,2.9,5,7.1c0,5.7-5,8.7-10,8.7h-16.3
		V241.6z M-248.6,252.8h4.7c1.8,0,3-0.5,3-2.4c0-1.4-1.2-2-3-2h-4.7V252.8z M-248.6,263.4h5.2c1.8,0,3.4-0.5,3.4-2.7
		c0-1.7-1-2.6-3.1-2.6h-5.5L-248.6,263.4L-248.6,263.4z M-220.5,247.2h-7.9v-5.6h7.9V247.2z M-228.4,249.4h7.9v20.9h-7.9V249.4z
		 M-206.3,270.8c-7.8,0-11.3-5.2-11.3-10.9c0-5.8,3.5-10.9,11.3-10.9s11.4,5.1,11.4,10.9C-194.9,265.6-198.5,270.8-206.3,270.8z
		 M-206.3,254.7c-3,0-3.4,2.9-3.4,5.1s0.4,5.2,3.4,5.2s3.4-3,3.4-5.2S-203.3,254.7-206.3,254.7z"/>
	<polygon class="st0" points="-192.2,241.6 -170.1,241.6 -170.1,248.9 -183.4,248.9 -183.4,252.5 -172,252.5 -172,259.3 
		-183.4,259.3 -183.4,270.3 -192.2,270.3 	"/>
	<path class="st0" d="M-147.5,265.6c0,1.6,0.1,3.3,1,4.7h-8.1c-0.2-0.6-0.3-1.4-0.3-2h-0.1c-1.7,1.9-4.1,2.5-6.7,2.5
		c-4,0-7.3-1.9-7.3-6.3c0-6.6,7.7-6.3,11.8-7.1c1.1-0.2,2.2-0.5,2.2-1.8c0-1.4-1.3-1.9-2.6-1.9c-2.4,0-2.9,1.2-3,2.1h-7.4
		c0.1-2.9,1.6-4.7,3.6-5.6c2-1,4.7-1.2,7.1-1.2c9.9,0,9.9,4.1,9.9,8.1L-147.5,265.6L-147.5,265.6z M-155.1,260.9c-1,0.5-2,0.8-3.1,1
		c-1.8,0.4-2.7,0.8-2.7,2.2c0,1,1,1.9,2.5,1.9c1.8,0,3.2-1.1,3.3-3.2V260.9L-155.1,260.9z M-130.7,257.3c-0.1-0.8-0.4-1.5-0.9-2
		c-0.5-0.4-1.2-0.7-2-0.7c-3,0-3.5,2.6-3.5,5.2c0,2.5,0.4,5.1,3.5,5.1c1.7,0,2.9-1.4,3.1-3h7.6c-0.4,2.8-1.7,5-3.6,6.5
		c-1.9,1.5-4.4,2.3-7.2,2.3c-6.3,0-11.3-4.3-11.3-10.9s5-10.9,11.3-10.9c5.5,0,10.1,2.7,10.6,8.4H-130.7z M-110.8,249.4h4.3v4.9
		h-4.3v7.3c0,1.9,0.4,2.8,2.4,2.8c0.6,0,1.2,0,1.8-0.1v6c-1.6,0-3.4,0.2-5.1,0.2c-3.4,0-7.1-0.5-7.1-6.2v-10h-3.5v-4.9h3.5v-6.3h7.9
		L-110.8,249.4L-110.8,249.4L-110.8,249.4z M-92.8,255.5c0-0.7-0.4-1.2-0.9-1.6c-0.5-0.4-1.1-0.6-1.8-0.6c-1.1,0-2.4,0.2-2.4,1.6
		c0,0.6,0.5,0.9,0.9,1.1c1.3,0.6,4.3,0.7,7,1.6c2.6,0.8,5,2.4,5,5.8c0,5.8-5.5,7.3-10.6,7.3c-4.9,0-10.3-2-10.4-7.3h7.6
		c0,0.7,0.4,1.3,1,1.8c0.4,0.4,1.2,0.6,2.1,0.6c1,0,2.7-0.4,2.7-1.6s-0.7-1.6-4.4-2.2c-6.1-1-8.5-3-8.5-6.5c0-5.3,5.7-6.6,9.8-6.6
		c4.5,0,9.9,1.2,10.1,6.6L-92.8,255.5L-92.8,255.5z"/>
</g>
<polygon class="st0" points="-231.1,315.7 -231.1,316.9 -236.7,316.9 -236.7,320.3 -231.8,320.3 -231.8,321.5 -236.7,321.5 
	-236.7,326.4 -238.1,326.4 -238.1,315.7 "/>
<g transform="translate(171 98)">
	<path class="st0" d="M-254.6,252.6v-6.8h-2.7v-1.6c0.4,0,0.7,0,1.1-0.1c0.3-0.1,0.7-0.2,0.9-0.3c0.3-0.2,0.5-0.4,0.7-0.7
		s0.3-0.6,0.4-1h1.7v10.6L-254.6,252.6L-254.6,252.6z M-249.1,244.7c0.2-0.7,0.5-1.3,0.8-1.7c0.4-0.4,0.8-0.7,1.2-0.9
		c0.5-0.2,1-0.3,1.5-0.3s1,0.1,1.5,0.3s0.9,0.5,1.2,0.9c0.4,0.4,0.6,1,0.8,1.7s0.3,1.6,0.3,2.6c0,1.1-0.1,1.9-0.3,2.6
		c-0.2,0.7-0.5,1.3-0.8,1.7c-0.4,0.4-0.8,0.7-1.2,0.9c-0.5,0.2-1,0.3-1.5,0.3s-1-0.1-1.5-0.3s-0.9-0.5-1.2-0.9
		c-0.4-0.4-0.6-1-0.8-1.7s-0.3-1.6-0.3-2.6C-249.4,246.2-249.3,245.4-249.1,244.7z M-247.2,248.3c0,0.4,0.1,0.8,0.2,1.2
		c0.1,0.4,0.3,0.7,0.5,1s0.6,0.4,1,0.4s0.8-0.1,1-0.4s0.4-0.6,0.5-1s0.2-0.8,0.2-1.2s0-0.8,0-1.1c0-0.2,0-0.4,0-0.7s0-0.5-0.1-0.8
		c0-0.3-0.1-0.5-0.2-0.8c-0.1-0.3-0.2-0.5-0.3-0.7s-0.3-0.4-0.5-0.5s-0.4-0.2-0.7-0.2s-0.5,0.1-0.7,0.2c-0.2,0.1-0.4,0.3-0.5,0.5
		s-0.2,0.4-0.3,0.7s-0.1,0.5-0.2,0.8c0,0.3,0,0.5-0.1,0.8c0,0.3,0,0.5,0,0.7C-247.3,247.5-247.3,247.9-247.2,248.3z"/>
	<polygon class="st0" points="-235.3,241.5 -239.5,252.8 -241.2,252.8 -237,241.5 	"/>
	<path class="st0" d="M-234.5,244.7c0.2-0.7,0.5-1.3,0.8-1.7c0.4-0.4,0.8-0.7,1.2-0.9c0.5-0.2,1-0.3,1.5-0.3s1,0.1,1.5,0.3
		s0.9,0.5,1.2,0.9c0.4,0.4,0.6,1,0.8,1.7s0.3,1.6,0.3,2.6c0,1.1-0.1,1.9-0.3,2.6c-0.2,0.7-0.5,1.3-0.8,1.7c-0.4,0.4-0.8,0.7-1.2,0.9
		c-0.5,0.2-1,0.3-1.5,0.3s-1-0.1-1.5-0.3s-0.9-0.5-1.2-0.9c-0.4-0.4-0.6-1-0.8-1.7s-0.3-1.6-0.3-2.6
		C-234.8,246.2-234.7,245.4-234.5,244.7z M-232.7,248.3c0,0.4,0.1,0.8,0.2,1.2c0.1,0.4,0.3,0.7,0.5,1s0.6,0.4,1,0.4s0.8-0.1,1-0.4
		s0.4-0.6,0.5-1s0.2-0.8,0.2-1.2s0-0.8,0-1.1c0-0.2,0-0.4,0-0.7s0-0.5-0.1-0.8c0-0.3-0.1-0.5-0.2-0.8c-0.1-0.3-0.2-0.5-0.3-0.7
		s-0.3-0.4-0.5-0.5s-0.4-0.2-0.7-0.2s-0.5,0.1-0.7,0.2c-0.2,0.1-0.4,0.3-0.5,0.5s-0.2,0.4-0.3,0.7s-0.1,0.5-0.2,0.8
		c0,0.3,0,0.5-0.1,0.8c0,0.3,0,0.5,0,0.7C-232.7,247.5-232.7,247.9-232.7,248.3z M-223.3,243.8l-0.4,2.4l0,0
		c0.3-0.3,0.6-0.5,0.9-0.6c0.3-0.1,0.7-0.2,1.1-0.2c0.5,0,1,0.1,1.4,0.3s0.7,0.4,1,0.8c0.3,0.3,0.5,0.7,0.6,1.1
		c0.1,0.4,0.2,0.9,0.2,1.4s-0.1,1-0.3,1.5s-0.5,0.9-0.9,1.2s-0.8,0.6-1.2,0.8c-0.5,0.2-1,0.3-1.5,0.3s-1-0.1-1.5-0.2
		c-0.5-0.1-0.9-0.3-1.2-0.6c-0.4-0.3-0.7-0.6-0.9-1s-0.3-0.9-0.3-1.5h2.1c0.1,0.5,0.2,0.9,0.5,1.2s0.7,0.4,1.2,0.4
		c0.3,0,0.5-0.1,0.8-0.2c0.2-0.1,0.4-0.3,0.6-0.5c0.2-0.2,0.3-0.4,0.4-0.6c0.1-0.2,0.1-0.5,0.1-0.8s0-0.5-0.1-0.8s-0.2-0.5-0.4-0.6
		c-0.2-0.2-0.4-0.3-0.6-0.4c-0.2-0.1-0.5-0.2-0.8-0.2c-0.4,0-0.7,0.1-0.9,0.2c-0.2,0.1-0.5,0.3-0.7,0.6h-1.9l1-5.8h5.9v1.8
		L-223.3,243.8L-223.3,243.8z"/>
	<polygon class="st0" points="-212,241.5 -216.2,252.8 -217.9,252.8 -213.7,241.5 	"/>
	<path class="st0" d="M-211.1,244.4c0.2-0.5,0.4-1,0.7-1.4s0.7-0.7,1.2-0.9s1-0.3,1.7-0.3c0.5,0,0.9,0.1,1.4,0.2
		c0.4,0.2,0.8,0.4,1.2,0.6c0.3,0.3,0.6,0.6,0.8,1s0.3,0.9,0.3,1.4s-0.1,1-0.3,1.4s-0.4,0.7-0.7,1s-0.6,0.6-1,0.8s-0.7,0.5-1.1,0.7
		c-0.4,0.2-0.7,0.5-1.1,0.8c-0.3,0.3-0.6,0.6-0.9,1h5v1.8h-7.8c0-0.6,0.1-1.1,0.3-1.6s0.4-0.9,0.7-1.2c0.3-0.4,0.7-0.7,1.1-1
		c0.4-0.3,0.8-0.6,1.3-0.9c0.2-0.2,0.5-0.3,0.7-0.5c0.3-0.2,0.5-0.3,0.7-0.6c0.2-0.2,0.4-0.4,0.5-0.7s0.2-0.5,0.2-0.9
		c0-0.5-0.1-0.9-0.4-1.2c-0.3-0.3-0.7-0.4-1.1-0.4c-0.3,0-0.6,0.1-0.8,0.2c-0.2,0.1-0.4,0.3-0.5,0.6c-0.1,0.2-0.2,0.5-0.3,0.8
		s-0.1,0.6-0.1,0.9h-2.1C-211.3,245.5-211.3,244.9-211.1,244.4z M-202.6,244.7c0.2-0.7,0.5-1.3,0.8-1.7c0.4-0.4,0.8-0.7,1.2-0.9
		c0.5-0.2,1-0.3,1.5-0.3s1,0.1,1.5,0.3s0.9,0.5,1.2,0.9c0.4,0.4,0.6,1,0.8,1.7s0.3,1.6,0.3,2.6c0,1.1-0.1,1.9-0.3,2.6
		c-0.2,0.7-0.5,1.3-0.8,1.7c-0.4,0.4-0.8,0.7-1.2,0.9c-0.5,0.2-1,0.3-1.5,0.3s-1-0.1-1.5-0.3s-0.9-0.5-1.2-0.9
		c-0.4-0.4-0.6-1-0.8-1.7s-0.3-1.6-0.3-2.6C-202.9,246.2-202.8,245.4-202.6,244.7z M-200.7,248.3c0,0.4,0.1,0.8,0.2,1.2
		c0.1,0.4,0.3,0.7,0.5,1s0.6,0.4,1,0.4s0.8-0.1,1-0.4s0.4-0.6,0.5-1s0.2-0.8,0.2-1.2s0-0.8,0-1.1c0-0.2,0-0.4,0-0.7s0-0.5-0.1-0.8
		c0-0.3-0.1-0.5-0.2-0.8c-0.1-0.3-0.2-0.5-0.3-0.7s-0.3-0.4-0.5-0.5s-0.4-0.2-0.7-0.2s-0.5,0.1-0.7,0.2c-0.2,0.1-0.4,0.3-0.5,0.5
		s-0.2,0.4-0.3,0.7s-0.1,0.5-0.2,0.8c0,0.3,0,0.5-0.1,0.8c0,0.3,0,0.5,0,0.7C-200.7,247.5-200.7,247.9-200.7,248.3z M-189.1,243.8
		c-0.3-0.3-0.6-0.4-0.9-0.4c-0.4,0-0.7,0.1-1,0.3s-0.5,0.5-0.6,0.8c-0.2,0.3-0.3,0.7-0.3,1c-0.1,0.4-0.1,0.7-0.1,1l0,0
		c0.3-0.4,0.6-0.7,1-0.9s0.8-0.3,1.4-0.3c0.5,0,0.9,0.1,1.3,0.3s0.8,0.5,1.1,0.8s0.5,0.7,0.6,1.1c0.1,0.4,0.2,0.8,0.2,1.3
		s-0.1,1-0.3,1.5s-0.4,0.9-0.8,1.2c-0.3,0.3-0.7,0.6-1.2,0.8s-1,0.3-1.5,0.3c-0.8,0-1.5-0.2-2-0.5s-0.9-0.7-1.3-1.2
		c-0.3-0.5-0.5-1.1-0.6-1.7c-0.1-0.6-0.2-1.3-0.2-2s0.1-1.3,0.2-2c0.2-0.7,0.4-1.2,0.7-1.8c0.3-0.5,0.8-1,1.3-1.3s1.2-0.5,1.9-0.5
		c0.5,0,0.9,0.1,1.3,0.2c0.4,0.1,0.7,0.3,1,0.6c0.3,0.2,0.5,0.5,0.7,0.9s0.3,0.8,0.4,1.3h-2C-188.7,244.4-188.9,244.1-189.1,243.8z
		 M-190.9,247.3c-0.2,0.1-0.4,0.2-0.5,0.4s-0.2,0.4-0.3,0.6c-0.1,0.2-0.1,0.5-0.1,0.7s0,0.5,0.1,0.7s0.2,0.4,0.3,0.6
		c0.1,0.2,0.3,0.3,0.5,0.4c0.2,0.1,0.5,0.2,0.7,0.2c0.3,0,0.5-0.1,0.7-0.2c0.2-0.1,0.4-0.3,0.5-0.4c0.1-0.2,0.2-0.4,0.3-0.6
		c0.1-0.2,0.1-0.5,0.1-0.7c0-0.3,0-0.5-0.1-0.7s-0.2-0.4-0.3-0.6c-0.1-0.2-0.3-0.3-0.5-0.5c-0.2-0.1-0.4-0.2-0.7-0.2
		C-190.5,247.1-190.7,247.1-190.9,247.3z M-184.8,243.4c0.2-0.4,0.5-0.7,0.8-0.9s0.7-0.4,1.1-0.5c0.4-0.1,0.9-0.2,1.3-0.2
		c0.7,0,1.2,0.1,1.7,0.3s0.8,0.4,1.1,0.7s0.5,0.6,0.6,0.9c0.1,0.3,0.2,0.6,0.2,0.9c0,0.5-0.1,1-0.4,1.4c-0.3,0.4-0.6,0.7-1.2,0.8
		l0,0c0.6,0.1,1.1,0.4,1.5,0.9c0.3,0.5,0.5,1,0.5,1.7c0,0.6-0.1,1.1-0.3,1.5s-0.5,0.8-0.9,1c-0.4,0.3-0.8,0.5-1.3,0.6
		s-1,0.2-1.4,0.2c-0.5,0-1-0.1-1.5-0.2c-0.5-0.1-0.9-0.3-1.3-0.6c-0.4-0.3-0.7-0.6-0.9-1s-0.3-0.9-0.3-1.5c0-0.7,0.2-1.2,0.5-1.7
		s0.8-0.8,1.5-0.9l0,0c-0.5-0.1-0.9-0.4-1.2-0.8c-0.3-0.4-0.4-0.9-0.4-1.4C-185.2,244.2-185.1,243.8-184.8,243.4z M-183.3,250.1
		c0.1,0.2,0.2,0.4,0.4,0.6c0.2,0.2,0.4,0.3,0.6,0.4c0.2,0.1,0.5,0.1,0.7,0.1c0.3,0,0.5,0,0.7-0.1s0.4-0.2,0.6-0.4
		c0.2-0.2,0.3-0.3,0.4-0.6c0.1-0.2,0.1-0.5,0.1-0.7c0-0.3,0-0.5-0.1-0.7s-0.2-0.4-0.4-0.5c-0.2-0.2-0.4-0.3-0.6-0.3
		c-0.2-0.1-0.5-0.1-0.7-0.1c-0.5,0-1,0.1-1.3,0.4c-0.4,0.3-0.5,0.7-0.5,1.2C-183.5,249.6-183.4,249.9-183.3,250.1z M-182.7,245.9
		c0.3,0.2,0.7,0.4,1.1,0.4c0.5,0,0.8-0.1,1.1-0.4c0.3-0.2,0.5-0.6,0.5-1c0-0.1,0-0.3-0.1-0.5c0-0.2-0.1-0.3-0.2-0.5
		c-0.1-0.2-0.3-0.3-0.5-0.4c-0.2-0.1-0.5-0.2-0.8-0.2c-0.2,0-0.4,0-0.6,0.1c-0.2,0.1-0.4,0.2-0.5,0.3c-0.2,0.1-0.3,0.3-0.4,0.5
		c-0.1,0.2-0.1,0.4-0.1,0.6C-183.2,245.3-183.1,245.7-182.7,245.9z"/>
	<polygon class="st0" points="-171.7,243 -171.3,244.2 -173.1,244.8 -172,246.3 -173,247 -174.1,245.4 -175.2,247 -176.2,246.3 
		-175.1,244.8 -176.8,244.2 -176.4,243 -174.7,243.7 -174.7,241.8 -173.5,241.8 -173.5,243.7 	"/>
</g>
</svg>
