<svg xmlns="http://www.w3.org/2000/svg" width="274" height="132" viewBox="0 0 274 132">
  <rect width="243.3" height="8.9" x="15.8" y="59.7"/>
  <rect width="243.3" height="1.8" x="15.8" y="90.2"/>
  <rect width="243.3" height="5" x="15.8" y="113.9"/>
  <path d="M273.6,131.7 L0,131.7 L0,0 L273.6,0 L273.6,131.7 Z M1.8,129.9 L271.8,129.9 L271.8,1.8 L1.8,1.8 L1.8,129.9 Z"/>
  <path d="M55.6,16.1 C51.5,12 46,9.7 40.2,9.7 C34.4,9.7 28.9,12 24.8,16.1 C20.7,20.2 18.4,25.7 18.4,31.5 C18.4,37.3 20.7,42.8 24.8,46.9 C28.9,51 34.4,53.3 40.2,53.3 C46,53.3 51.5,51 55.6,46.9 C59.7,42.8 62,37.3 62,31.5 C62,25.7 59.8,20.2 55.6,16.1 Z M57.2,31.5 C57.2,40.9 49.6,48.5 40.2,48.5 C30.8,48.5 23.2,40.9 23.2,31.5 C23.2,22.1 30.8,14.5 40.2,14.5 C49.6,14.6 57.2,22.2 57.2,31.5 Z"/>
  <path d="M52.8,31.5 C48.9,30.6 42.4,29.1 39.1,32.7 L38.1,33.8 C38.1,33.8 38,33.9 38,33.9 L37.9,34 C37.2,34.7 36.6,35.2 36.6,35.2 L35.9,35.8 L36.8,36.1 C38.6,36.7 40.2,36.9 41.7,36.9 C46.4,36.9 49.9,34.7 52,33.3 C52.5,33 52.8,32.8 53.1,32.6 L54.3,32 L52.8,31.5 Z M39.9,33.3 C39.8,33.4 39.7,33.4 39.6,33.5 C39,34.1 38.5,34.5 38.5,34.5 C38.6,34.4 38.8,34.2 38.9,34 C39,33.9 39.1,33.7 39.3,33.6 C39.6,33.2 39.9,32.9 40.4,32.7 C40.9,32.5 41.4,32.4 41.9,32.4 C42.7,32.4 43.5,32.4 44.3,32.6 C44.7,32.7 45.1,32.8 45.5,32.8 C45.7,32.9 45.9,32.9 46.2,33 C46.4,33.1 46.6,33.2 46.9,33.2 C44.2,32.8 42.4,32.1 39.9,33.3 Z"/>
  <path d="M41.3,23.6 L38.6,17.4 L38.2,18.9 C37.8,20.4 37.2,21.8 36.5,23.1 C35.3,25.6 34.1,27.9 35.4,30.9 C35.8,31.9 36.6,33 37,33.6 L37.4,34.1 L37.7,33.7 L37.6,35 L39,33.2 C40.9,30.8 43,27.4 41.3,23.6 Z M38.9,32.8 C38.9,32.8 38.6,33.5 38,33.1 C38.1,33 38.2,32.9 38.3,32.7 C39.6,30.6 39.1,28.9 38.9,26.4 C39.4,28.9 39.5,30.6 38.9,32.8 Z"/>
  <g transform="translate(75 16)">
    <path d="M.4.3L16.1.3C23.6.3 25.2 4.6 25.2 7.5 25.2 10.4 23.8 12 21.7 13.1 24.3 14 26.7 16 26.7 20.2 26.7 25.9 21.7 28.9 16.7 28.9L.4 28.9.4.3zM9.2 11.5L13.9 11.5C15.7 11.5 16.9 11 16.9 9.1 16.9 7.7 15.7 7.1 13.9 7.1L9.2 7.1 9.2 11.5zM9.2 22.1L14.4 22.1C16.2 22.1 17.8 21.6 17.8 19.4 17.8 17.7 16.8 16.8 14.7 16.8L9.2 16.8 9.2 22.1 9.2 22.1zM37.3 5.9L29.4 5.9 29.4.3 37.3.3 37.3 5.9zM29.4 8.1L37.3 8.1 37.3 29 29.4 29 29.4 8.1zM51.5 29.5C43.7 29.5 40.2 24.3 40.2 18.6 40.2 12.8 43.7 7.7 51.5 7.7 59.3 7.7 62.9 12.8 62.9 18.6 62.9 24.3 59.3 29.5 51.5 29.5zM51.5 13.4C48.5 13.4 48.1 16.3 48.1 18.5 48.1 20.7 48.5 23.7 51.5 23.7 54.5 23.7 54.9 20.7 54.9 18.5 54.9 16.3 54.5 13.4 51.5 13.4z"/>
    <polygon points="65.6 .3 87.7 .3 87.7 7.6 74.4 7.6 74.4 11.2 85.8 11.2 85.8 18 74.4 18 74.4 29 65.6 29 65.6 .3"/>
    <path d="M110.3 24.3C110.3 25.9 110.4 27.6 111.3 29L103.2 29C103 28.4 102.9 27.6 102.9 27L102.8 27C101.1 28.9 98.7 29.5 96.1 29.5 92.1 29.5 88.8 27.6 88.8 23.2 88.8 16.6 96.5 16.9 100.6 16.1 101.7 15.9 102.8 15.6 102.8 14.3 102.8 12.9 101.5 12.4 100.2 12.4 97.8 12.4 97.3 13.6 97.2 14.5L89.8 14.5C89.9 11.6 91.4 9.8 93.4 8.9 95.4 7.9 98.1 7.7 100.5 7.7 110.4 7.7 110.4 11.8 110.4 15.8L110.4 24.3 110.3 24.3zM102.7 19.6C101.7 20.1 100.7 20.4 99.6 20.6 97.8 21 96.9 21.4 96.9 22.8 96.9 23.8 97.9 24.7 99.4 24.7 101.2 24.7 102.6 23.6 102.7 21.5L102.7 19.6 102.7 19.6zM127.1 16C127 15.2 126.7 14.5 126.2 14 125.7 13.6 125 13.3 124.2 13.3 121.2 13.3 120.7 15.9 120.7 18.5 120.7 21 121.1 23.6 124.2 23.6 125.9 23.6 127.1 22.2 127.3 20.6L134.9 20.6C134.5 23.4 133.2 25.6 131.3 27.1 129.4 28.6 126.9 29.4 124.1 29.4 117.8 29.4 112.8 25.1 112.8 18.5 112.8 11.9 117.8 7.6 124.1 7.6 129.6 7.6 134.2 10.3 134.7 16L127.1 16zM147 8.1L151.3 8.1 151.3 13 147 13 147 20.3C147 22.2 147.4 23.1 149.4 23.1 150 23.1 150.6 23.1 151.2 23L151.2 29C149.6 29 147.8 29.2 146.1 29.2 142.7 29.2 139 28.7 139 23L139 13 135.5 13 135.5 8.1 139 8.1 139 1.8 146.9 1.8 146.9 8.1 147 8.1zM165 14.2C165 13.5 164.6 13 164.1 12.6 163.6 12.2 163 12 162.3 12 161.2 12 159.9 12.2 159.9 13.6 159.9 14.2 160.4 14.5 160.8 14.7 162.1 15.3 165.1 15.4 167.8 16.3 170.4 17.1 172.8 18.7 172.8 22.1 172.8 27.9 167.3 29.4 162.2 29.4 157.3 29.4 151.9 27.4 151.8 22.1L159.4 22.1C159.4 22.8 159.8 23.4 160.4 23.9 160.8 24.3 161.6 24.5 162.5 24.5 163.5 24.5 165.2 24.1 165.2 22.9 165.2 21.7 164.5 21.3 160.8 20.7 154.7 19.7 152.3 17.7 152.3 14.2 152.3 8.9 158 7.6 162.1 7.6 166.6 7.6 172 8.8 172.2 14.2L165 14.2 165 14.2z"/>
  </g>
  <g transform="translate(19 73)">
    <polygon points="7.7 1.4 7.7 2.6 2.1 2.6 2.1 6 7 6 7 7.2 2.1 7.2 2.1 12.1 .7 12.1 .7 1.4"/>
    <path d="M14.6 11.6C14 12 13.3 12.3 12.4 12.3 11.8 12.3 11.2 12.2 10.8 12 10.3 11.8 10 11.5 9.6 11.2 9.3 10.8 9.1 10.4 8.9 9.9 8.7 9.4 8.7 8.9 8.6 8.3 8.6 7.7 8.7 7.2 8.9 6.7 9.1 6.2 9.3 5.8 9.7 5.4 10 5 10.4 4.8 10.9 4.6 11.3 4.4 11.8 4.3 12.4 4.3 13.1 4.3 13.7 4.4 14.1 4.7 14.5 5 14.9 5.4 15.2 5.8 15.5 6.2 15.7 6.7 15.8 7.2 15.9 7.7 15.9 8.2 15.9 8.7L10 8.7C10 9 10 9.4 10.1 9.7 10.2 10 10.3 10.3 10.5 10.5 10.7 10.7 11 10.9 11.3 11.1 11.6 11.2 12 11.3 12.4 11.3 12.9 11.3 13.4 11.2 13.7 10.9 14 10.6 14.3 10.3 14.4 9.8L15.7 9.8C15.5 10.5 15.2 11.2 14.6 11.6zM14.3 6.6C14.2 6.3 14 6.1 13.8 5.9 13.6 5.7 13.4 5.5 13.1 5.4 12.8 5.3 12.5 5.2 12.2 5.2 11.9 5.2 11.6 5.3 11.3 5.4 11 5.5 10.8 5.7 10.6 5.9 10.4 6.1 10.3 6.3 10.1 6.6 10 6.9 9.9 7.2 9.9 7.5L14.4 7.5C14.5 7.2 14.4 6.9 14.3 6.6zM21.8 5.7C21.5 5.4 21 5.3 20.5 5.3 20 5.3 19.6 5.4 19.3 5.6 19 5.8 18.7 6 18.6 6.3 18.4 6.6 18.3 6.9 18.2 7.3 18.1 7.7 18.1 8 18.1 8.4 18.1 8.8 18.1 9.1 18.2 9.5 18.3 9.8 18.4 10.1 18.6 10.4 18.8 10.7 19 10.9 19.3 11 19.6 11.2 19.9 11.2 20.3 11.2 20.9 11.2 21.4 11 21.8 10.7 22.2 10.4 22.4 9.9 22.5 9.3L23.8 9.3C23.7 10.3 23.3 11 22.7 11.5 22.1 12 21.3 12.3 20.3 12.3 19.7 12.3 19.2 12.2 18.7 12 18.2 11.8 17.9 11.5 17.6 11.2 17.3 10.8 17.1 10.4 16.9 9.9 16.7 9.4 16.7 8.9 16.7 8.3 16.7 7.7 16.8 7.2 16.9 6.7 17.1 6.2 17.3 5.7 17.6 5.4 17.9 5 18.3 4.7 18.8 4.5 19.3 4.3 19.8 4.2 20.4 4.2 20.8 4.2 21.3 4.3 21.6 4.4 22 4.5 22.3 4.7 22.6 4.9 22.9 5.1 23.1 5.4 23.3 5.7 23.5 6 23.6 6.4 23.7 6.9L22.4 6.9C22.4 6.4 22.1 6 21.8 5.7zM26.5 1.4L26.5 5.5 26.5 5.5C26.6 5.3 26.7 5.1 26.9 4.9 27.1 4.7 27.3 4.6 27.5 4.5 27.7 4.4 28 4.3 28.2 4.3 28.4 4.2 28.7 4.2 28.9 4.2 29.4 4.2 29.8 4.3 30.2 4.4 30.5 4.5 30.8 4.7 31 5 31.2 5.3 31.4 5.5 31.4 5.9 31.5 6.2 31.5 6.6 31.5 7.1L31.5 12.2 30.2 12.2 30.2 6.9C30.2 6.4 30.1 6 29.8 5.8 29.5 5.5 29.1 5.4 28.6 5.4 28.2 5.4 27.9 5.5 27.6 5.6 27.3 5.7 27.1 5.9 26.9 6.1 26.7 6.3 26.6 6.6 26.5 6.9 26.4 7.2 26.4 7.5 26.4 7.9L26.4 12.3 25.1 12.3 25.1 1.4 26.5 1.4zM40.6 12.1C40.4 12.2 40.1 12.3 39.7 12.3 39.4 12.3 39.1 12.2 38.9 12 38.7 11.8 38.6 11.5 38.6 11.1 38.2 11.5 37.8 11.8 37.4 12 37 12.2 36.4 12.3 35.9 12.3 35.5 12.3 35.2 12.3 34.9 12.2 34.6 12.1 34.3 12 34.1 11.8 33.9 11.6 33.7 11.4 33.5 11.1 33.4 10.8 33.3 10.5 33.3 10.1 33.3 9.7 33.4 9.3 33.5 9 33.7 8.7 33.8 8.5 34.1 8.3 34.3 8.1 34.6 8 34.9 7.9 35.2 7.8 35.5 7.7 35.9 7.7 36.3 7.6 36.6 7.6 36.9 7.5 37.2 7.5 37.5 7.4 37.7 7.3 37.9 7.2 38.1 7.1 38.3 7 38.4 6.9 38.5 6.7 38.5 6.5 38.5 6.2 38.4 6 38.3 5.8 38.2 5.6 38.1 5.5 37.9 5.4 37.7 5.3 37.5 5.2 37.3 5.2 37.1 5.2 36.9 5.2 36.7 5.2 36.2 5.2 35.7 5.3 35.3 5.5 34.9 5.7 34.7 6.1 34.7 6.7L33.4 6.7C33.4 6.2 33.5 5.8 33.7 5.5 33.9 5.2 34.1 4.9 34.4 4.7 34.7 4.5 35 4.3 35.4 4.3 35.8 4.2 36.2 4.2 36.6 4.2 37 4.2 37.3 4.2 37.6 4.3 37.9 4.3 38.3 4.5 38.5 4.6 38.8 4.8 39 5 39.2 5.3 39.4 5.6 39.5 5.9 39.5 6.4L39.5 10.4C39.5 10.7 39.5 10.9 39.6 11.1 39.6 11.2 39.8 11.3 40 11.3 40.1 11.3 40.2 11.3 40.4 11.2L40.4 12.1 40.6 12.1zM38.5 8.1C38.3 8.2 38.1 8.3 37.9 8.4 37.6 8.5 37.4 8.5 37.1 8.5 36.8 8.5 36.5 8.6 36.2 8.6 35.9 8.6 35.6 8.7 35.4 8.8 35.2 8.9 35 9 34.8 9.2 34.7 9.4 34.6 9.6 34.6 10 34.6 10.2 34.6 10.4 34.7 10.5 34.8 10.6 34.9 10.8 35 10.9 35.1 11 35.3 11.1 35.5 11.1 35.7 11.1 35.9 11.2 36.1 11.2 36.5 11.2 36.9 11.1 37.2 11 37.5 10.9 37.7 10.7 37.9 10.6 38.1 10.4 38.2 10.2 38.3 10 38.4 9.8 38.4 9.6 38.4 9.4L38.4 8.1 38.5 8.1zM51.6 12.1L51.6 11 51.6 11C51.4 11.4 51.1 11.7 50.6 11.9 50.1 12.1 49.7 12.2 49.1 12.2 48.5 12.2 48 12.1 47.5 11.9 47.1 11.7 46.7 11.4 46.4 11 46.1 10.6 45.9 10.2 45.7 9.7 45.5 9.2 45.5 8.7 45.5 8.1 45.5 7.5 45.6 7 45.7 6.5 45.8 6 46.1 5.6 46.4 5.2 46.7 4.8 47.1 4.5 47.5 4.3 47.9 4.1 48.5 4 49.1 4 49.3 4 49.5 4 49.7 4.1 49.9 4.1 50.2 4.2 50.4 4.3 50.6 4.4 50.8 4.5 51.1 4.7 51.3 4.9 51.5 5 51.6 5.3L51.6 5.3 51.6 1.3 52.9 1.3 52.9 12.1 51.6 12.1 51.6 12.1zM47 9.4C47.1 9.7 47.2 10.1 47.4 10.3 47.6 10.6 47.8 10.8 48.2 10.9 48.5 11.1 48.9 11.1 49.3 11.1 49.7 11.1 50.1 11 50.4 10.8 50.7 10.6 50.9 10.4 51.1 10.1 51.3 9.8 51.4 9.5 51.5 9.2 51.6 8.8 51.6 8.5 51.6 8.1 51.6 7.7 51.6 7.3 51.5 7 51.4 6.6 51.3 6.3 51.1 6.1 50.9 5.8 50.7 5.6 50.3 5.4 50 5.2 49.6 5.2 49.2 5.2 48.8 5.2 48.4 5.3 48.1 5.5 47.8 5.7 47.6 5.9 47.4 6.2 47.2 6.5 47.1 6.8 47 7.2 46.9 7.6 46.9 7.9 46.9 8.3 46.9 8.7 46.9 9 47 9.4zM60.4 11.6C59.8 12 59.1 12.3 58.2 12.3 57.6 12.3 57 12.2 56.6 12 56.1 11.8 55.8 11.5 55.4 11.2 55.1 10.8 54.9 10.4 54.7 9.9 54.5 9.4 54.5 8.9 54.4 8.3 54.4 7.7 54.5 7.2 54.7 6.7 54.9 6.2 55.1 5.8 55.5 5.4 55.8 5 56.2 4.8 56.7 4.6 57.1 4.4 57.6 4.3 58.2 4.3 58.9 4.3 59.5 4.4 59.9 4.7 60.3 5 60.7 5.4 61 5.8 61.3 6.2 61.5 6.7 61.6 7.2 61.7 7.7 61.7 8.2 61.7 8.7L55.9 8.7C55.9 9 55.9 9.4 56 9.7 56.1 10 56.2 10.3 56.4 10.5 56.6 10.7 56.9 10.9 57.2 11.1 57.5 11.2 57.9 11.3 58.3 11.3 58.8 11.3 59.3 11.2 59.6 10.9 59.9 10.6 60.2 10.3 60.3 9.8L61.6 9.8C61.4 10.5 61 11.2 60.4 11.6zM60.1 6.6C60 6.3 59.8 6.1 59.6 5.9 59.4 5.7 59.2 5.5 58.9 5.4 58.6 5.3 58.3 5.2 58 5.2 57.7 5.2 57.4 5.3 57.1 5.4 56.8 5.5 56.6 5.7 56.4 5.9 56.2 6.1 56.1 6.3 55.9 6.6 55.8 6.9 55.7 7.2 55.7 7.5L60.2 7.5C60.3 7.2 60.2 6.9 60.1 6.6zM71.3 1.4C71.5 1.4 71.8 1.4 72 1.4 72.3 1.4 72.5 1.4 72.8 1.4 73.1 1.4 73.3 1.5 73.5 1.5 73.7 1.6 73.9 1.6 74.1 1.7 74.5 1.9 74.8 2.2 75 2.6 75.2 3 75.4 3.4 75.4 4 75.4 4.6 75.3 5.1 75 5.5 74.7 5.9 74.3 6.2 73.8 6.4L73.8 6.4C74.5 6.5 75 6.8 75.3 7.3 75.7 7.8 75.8 8.3 75.8 9 75.8 9.4 75.7 9.8 75.6 10.1 75.5 10.5 75.3 10.8 75 11.1 74.7 11.4 74.4 11.6 74 11.8 73.6 12 73.1 12.1 72.6 12.1L67.4 12.1 67.4 1.4 71.3 1.4zM71.7 6C72.5 6 73.1 5.9 73.5 5.6 73.9 5.3 74 4.9 74 4.3 74 3.9 73.9 3.6 73.8 3.4 73.7 3.2 73.5 3 73.3 2.9 73.1 2.8 72.8 2.7 72.6 2.7 72.3 2.7 72 2.6 71.7 2.6L68.8 2.6 68.8 6 71.7 6zM72.4 10.9C73 10.9 73.5 10.7 73.9 10.4 74.3 10.1 74.4 9.6 74.4 9 74.4 8.6 74.3 8.4 74.2 8.1 74.1 7.9 73.9 7.7 73.7 7.5 73.5 7.4 73.2 7.3 73 7.2 72.7 7.1 72.4 7.1 72.1 7.1L68.8 7.1 68.8 10.8 72.4 10.8 72.4 10.9zM77.6 2.9L77.6 1.3 78.9 1.3 78.9 2.9 77.6 2.9zM78.9 4.3L78.9 12.1 77.6 12.1 77.6 4.3 78.9 4.3zM80.7 6.6C80.9 6.1 81.1 5.7 81.4 5.3 81.7 4.9 82.1 4.6 82.6 4.4 83.1 4.2 83.6 4.1 84.2 4.1 84.8 4.1 85.4 4.2 85.8 4.4 86.3 4.6 86.7 4.9 87 5.3 87.3 5.7 87.6 6.1 87.7 6.6 87.9 7.1 87.9 7.6 87.9 8.2 87.9 8.8 87.8 9.3 87.7 9.8 87.5 10.3 87.3 10.7 87 11.1 86.7 11.5 86.3 11.8 85.8 12 85.3 12.2 84.8 12.3 84.2 12.3 83.6 12.3 83 12.2 82.6 12 82.2 11.8 81.7 11.5 81.4 11.1 81.1 10.7 80.8 10.3 80.7 9.8 80.5 9.3 80.5 8.8 80.5 8.2 80.4 7.7 80.5 7.1 80.7 6.6zM82 9.5C82.1 9.9 82.3 10.2 82.5 10.4 82.7 10.6 83 10.8 83.3 11 83.6 11.1 83.9 11.2 84.2 11.2 84.5 11.2 84.8 11.1 85.1 11 85.4 10.9 85.7 10.7 85.9 10.4 86.1 10.2 86.3 9.8 86.4 9.5 86.5 9.2 86.6 8.7 86.6 8.2 86.6 7.7 86.5 7.3 86.4 6.9 86.3 6.5 86.1 6.2 85.9 6 85.7 5.7 85.4 5.6 85.1 5.4 84.8 5.3 84.5 5.2 84.2 5.2 83.9 5.2 83.6 5.3 83.3 5.4 83 5.5 82.7 5.7 82.5 6 82.3 6.3 82.1 6.6 82 6.9 81.9 7.2 81.8 7.7 81.8 8.2 81.8 8.7 81.9 9.1 82 9.5zM95.2 12.1L95.2 11 95.2 11C95 11.4 94.7 11.7 94.2 11.9 93.7 12.1 93.3 12.2 92.7 12.2 92.1 12.2 91.6 12.1 91.1 11.9 90.7 11.7 90.3 11.4 90 11 89.7 10.6 89.5 10.2 89.3 9.7 89.1 9.2 89.1 8.7 89.1 8.1 89.1 7.5 89.2 7 89.3 6.5 89.4 6 89.7 5.6 90 5.2 90.3 4.8 90.7 4.5 91.1 4.3 91.5 4.1 92.1 4 92.7 4 92.9 4 93.1 4 93.3 4.1 93.5 4.1 93.8 4.2 94 4.3 94.2 4.4 94.4 4.5 94.7 4.7 94.9 4.9 95.1 5 95.2 5.3L95.2 5.3 95.2 1.3 96.5 1.3 96.5 12.1 95.2 12.1 95.2 12.1zM90.6 9.4C90.7 9.7 90.8 10.1 91 10.3 91.2 10.6 91.4 10.8 91.8 10.9 92.1 11.1 92.5 11.1 92.9 11.1 93.3 11.1 93.7 11 94 10.8 94.3 10.6 94.5 10.4 94.7 10.1 94.9 9.8 95 9.5 95.1 9.2 95.2 8.8 95.2 8.5 95.2 8.1 95.2 7.7 95.2 7.3 95.1 7 95 6.6 94.9 6.3 94.7 6.1 94.5 5.8 94.3 5.6 93.9 5.4 93.6 5.2 93.2 5.2 92.8 5.2 92.4 5.2 92 5.3 91.7 5.5 91.4 5.7 91.2 5.9 91 6.2 90.8 6.5 90.7 6.8 90.6 7.2 90.5 7.6 90.5 7.9 90.5 8.3 90.4 8.7 90.5 9 90.6 9.4zM104 11.6C103.4 12 102.7 12.3 101.8 12.3 101.2 12.3 100.6 12.2 100.2 12 99.7 11.8 99.4 11.5 99 11.2 98.7 10.8 98.5 10.4 98.3 9.9 98.1 9.4 98.1 8.9 98 8.3 98 7.7 98.1 7.2 98.3 6.7 98.5 6.2 98.7 5.8 99.1 5.4 99.4 5 99.8 4.8 100.3 4.6 100.7 4.4 101.2 4.3 101.8 4.3 102.5 4.3 103.1 4.4 103.5 4.7 103.9 5 104.3 5.4 104.6 5.8 104.9 6.2 105.1 6.7 105.2 7.2 105.3 7.7 105.3 8.2 105.3 8.7L99.5 8.7C99.5 9 99.5 9.4 99.6 9.7 99.7 10 99.8 10.3 100 10.5 100.2 10.7 100.5 10.9 100.8 11.1 101.1 11.2 101.5 11.3 101.9 11.3 102.4 11.3 102.9 11.2 103.2 10.9 103.5 10.6 103.8 10.3 103.9 9.8L105.2 9.8C104.9 10.5 104.6 11.2 104 11.6zM103.7 6.6C103.6 6.3 103.4 6.1 103.2 5.9 103 5.7 102.8 5.5 102.5 5.4 102.2 5.3 101.9 5.2 101.6 5.2 101.3 5.2 101 5.3 100.7 5.4 100.4 5.5 100.2 5.7 100 5.9 99.8 6.1 99.7 6.3 99.5 6.6 99.4 6.9 99.3 7.2 99.3 7.5L103.8 7.5C103.8 7.2 103.8 6.9 103.7 6.6zM112.4 14.3C111.8 14.9 110.9 15.3 109.7 15.3 109.3 15.3 109 15.3 108.6 15.2 108.2 15.1 107.9 15 107.6 14.8 107.3 14.6 107 14.4 106.8 14.1 106.6 13.8 106.5 13.5 106.5 13L107.8 13C107.8 13.2 107.9 13.4 108 13.6 108.1 13.8 108.3 13.9 108.5 14 108.7 14.1 108.9 14.2 109.1 14.2 109.3 14.2 109.6 14.3 109.8 14.3 110.2 14.3 110.6 14.2 110.9 14.1 111.2 14 111.4 13.8 111.6 13.5 111.8 13.2 111.9 12.9 112 12.6 112.1 12.2 112.1 11.8 112.1 11.4L112.1 10.9 112.1 10.9C111.9 11.4 111.5 11.7 111.1 12 110.7 12.2 110.2 12.3 109.7 12.3 109.1 12.3 108.6 12.2 108.2 12 107.8 11.8 107.4 11.5 107.1 11.1 106.8 10.7 106.6 10.3 106.4 9.8 106.3 9.3 106.2 8.8 106.2 8.3 106.2 7.8 106.3 7.4 106.4 6.9 106.5 6.4 106.7 6 107 5.6 107.3 5.2 107.7 4.9 108.1 4.6 108.6 4.3 109.1 4.2 109.8 4.2 110.3 4.2 110.7 4.3 111.2 4.5 111.6 4.7 111.9 5 112.2 5.5L112.2 5.5 112.2 4.4 113.4 4.4 113.4 11.5C113.3 12.8 113 13.7 112.4 14.3zM110.8 10.8C111.1 10.6 111.3 10.4 111.5 10.1 111.7 9.8 111.8 9.5 111.9 9.1 112 8.7 112 8.4 112 8 112 7.7 112 7.3 111.9 7 111.8 6.7 111.7 6.4 111.5 6.1 111.3 5.8 111.1 5.6 110.8 5.5 110.5 5.3 110.2 5.3 109.8 5.3 109.4 5.3 109 5.4 108.7 5.5 108.4 5.7 108.2 5.9 108 6.1 107.8 6.4 107.7 6.7 107.6 7 107.5 7.3 107.5 7.7 107.5 8.1 107.5 8.5 107.5 8.8 107.6 9.2 107.7 9.6 107.8 9.9 108 10.2 108.2 10.5 108.4 10.7 108.7 10.9 109 11.1 109.3 11.2 109.8 11.2 110.1 11.1 110.5 11 110.8 10.8zM116.4 4.3L116.4 6 116.4 6C116.7 5.4 117.1 4.9 117.5 4.6 118 4.3 118.5 4.2 119.2 4.2L119.2 5.6C118.7 5.6 118.3 5.7 117.9 5.8 117.5 5.9 117.2 6.1 117 6.4 116.8 6.7 116.6 7 116.5 7.4 116.4 7.8 116.3 8.2 116.3 8.7L116.3 12.2 115 12.2 115 4.4 116.4 4.4 116.4 4.3zM127.1 12.1C126.9 12.2 126.6 12.3 126.2 12.3 125.9 12.3 125.6 12.2 125.4 12 125.2 11.8 125.1 11.5 125.1 11.1 124.7 11.5 124.3 11.8 123.9 12 123.5 12.2 122.9 12.3 122.4 12.3 122 12.3 121.7 12.3 121.4 12.2 121.1 12.1 120.8 12 120.6 11.8 120.4 11.6 120.2 11.4 120 11.1 119.9 10.8 119.8 10.5 119.8 10.1 119.8 9.7 119.9 9.3 120 9 120.2 8.7 120.3 8.5 120.6 8.3 120.8 8.1 121.1 8 121.4 7.9 121.7 7.8 122 7.7 122.4 7.7 122.8 7.6 123.1 7.6 123.4 7.5 123.7 7.5 124 7.4 124.2 7.3 124.4 7.2 124.6 7.1 124.8 7 124.9 6.9 125 6.7 125 6.5 125 6.2 124.9 6 124.8 5.8 124.7 5.6 124.6 5.5 124.4 5.4 124.2 5.3 124 5.2 123.8 5.2 123.6 5.2 123.4 5.2 123.2 5.2 122.7 5.2 122.2 5.3 121.8 5.5 121.4 5.7 121.2 6.1 121.2 6.7L119.9 6.7C119.9 6.2 120 5.8 120.2 5.5 120.4 5.2 120.6 4.9 120.9 4.7 121.2 4.5 121.5 4.3 121.9 4.3 122.3 4.2 122.7 4.2 123.1 4.2 123.5 4.2 123.8 4.2 124.1 4.3 124.4 4.3 124.8 4.5 125 4.6 125.3 4.8 125.5 5 125.7 5.3 125.9 5.6 126 5.9 126 6.4L126 10.4C126 10.7 126 10.9 126.1 11.1 126.1 11.2 126.3 11.3 126.5 11.3 126.6 11.3 126.7 11.3 126.9 11.2L126.9 12.1 127.1 12.1zM125.1 8.1C124.9 8.2 124.7 8.3 124.5 8.4 124.2 8.5 124 8.5 123.7 8.5 123.4 8.5 123.1 8.6 122.8 8.6 122.5 8.6 122.2 8.7 122 8.8 121.8 8.9 121.6 9 121.4 9.2 121.3 9.4 121.2 9.6 121.2 10 121.2 10.2 121.2 10.4 121.3 10.5 121.4 10.6 121.5 10.8 121.6 10.9 121.7 11 121.9 11.1 122.1 11.1 122.3 11.1 122.5 11.2 122.7 11.2 123.1 11.2 123.5 11.1 123.8 11 124.1 10.9 124.3 10.7 124.5 10.6 124.7 10.4 124.8 10.2 124.9 10 125 9.8 125 9.6 125 9.4L125 8.1 125.1 8.1zM134 12.1L134 11 134 11C133.8 11.4 133.5 11.7 133 11.9 132.5 12.1 132.1 12.2 131.5 12.2 130.9 12.2 130.4 12.1 129.9 11.9 129.5 11.7 129.1 11.4 128.8 11 128.5 10.6 128.3 10.2 128.1 9.7 127.9 9.2 127.9 8.7 127.9 8.1 127.9 7.5 128 7 128.1 6.5 128.2 6 128.5 5.6 128.8 5.2 129.1 4.8 129.5 4.5 129.9 4.3 130.3 4.1 130.9 4 131.5 4 131.7 4 131.9 4 132.1 4.1 132.3 4.2 132.6 4.2 132.8 4.3 133 4.4 133.2 4.5 133.5 4.7 133.7 4.9 133.9 5 134 5.3L134 5.3 134 1.3 135.3 1.3 135.3 12.1 134 12.1 134 12.1zM129.4 9.4C129.5 9.7 129.6 10.1 129.8 10.3 130 10.6 130.2 10.8 130.6 10.9 130.9 11.1 131.3 11.1 131.7 11.1 132.1 11.1 132.5 11 132.8 10.8 133.1 10.6 133.3 10.4 133.5 10.1 133.7 9.8 133.8 9.5 133.9 9.2 134 8.8 134 8.5 134 8.1 134 7.7 134 7.3 133.9 7 133.8 6.6 133.7 6.3 133.5 6.1 133.3 5.8 133.1 5.6 132.7 5.4 132.4 5.2 132 5.2 131.6 5.2 131.2 5.2 130.8 5.3 130.5 5.5 130.2 5.7 130 5.9 129.8 6.2 129.6 6.5 129.5 6.8 129.4 7.2 129.3 7.6 129.3 7.9 129.3 8.3 129.3 8.7 129.3 9 129.4 9.4zM144.2 12.1C144 12.2 143.7 12.3 143.3 12.3 143 12.3 142.7 12.2 142.5 12 142.3 11.8 142.2 11.5 142.2 11.1 141.8 11.5 141.4 11.8 141 12 140.6 12.2 140 12.3 139.5 12.3 139.1 12.3 138.8 12.3 138.5 12.2 138.2 12.1 137.9 12 137.7 11.8 137.5 11.6 137.3 11.4 137.1 11.1 137 10.8 136.9 10.5 136.9 10.1 136.9 9.7 137 9.3 137.1 9 137.3 8.7 137.4 8.5 137.7 8.3 137.9 8.1 138.2 8 138.5 7.9 138.8 7.8 139.1 7.7 139.5 7.7 139.9 7.6 140.2 7.6 140.5 7.5 140.8 7.5 141.1 7.4 141.3 7.3 141.5 7.2 141.7 7.1 141.9 7 142 6.9 142.1 6.7 142.1 6.5 142.1 6.2 142 6 141.9 5.8 141.8 5.6 141.7 5.5 141.5 5.4 141.3 5.3 141.1 5.2 140.9 5.2 140.7 5.2 140.5 5.2 140.3 5.2 139.8 5.2 139.3 5.3 138.9 5.5 138.5 5.7 138.3 6.1 138.3 6.7L137 6.7C137 6.2 137.1 5.8 137.3 5.5 137.5 5.2 137.7 4.9 138 4.7 138.3 4.5 138.6 4.3 139 4.3 139.4 4.2 139.8 4.2 140.2 4.2 140.6 4.2 140.9 4.2 141.2 4.3 141.5 4.3 141.9 4.5 142.1 4.6 142.4 4.8 142.6 5 142.8 5.3 143 5.6 143.1 5.9 143.1 6.4L143.1 10.4C143.1 10.7 143.1 10.9 143.2 11.1 143.2 11.2 143.4 11.3 143.6 11.3 143.7 11.3 143.8 11.3 144 11.2L144 12.1 144.2 12.1zM142.1 8.1C141.9 8.2 141.7 8.3 141.5 8.4 141.2 8.5 141 8.5 140.7 8.5 140.4 8.5 140.1 8.6 139.8 8.6 139.5 8.6 139.2 8.7 139 8.8 138.8 8.9 138.6 9 138.4 9.2 138.3 9.4 138.2 9.6 138.2 10 138.2 10.2 138.2 10.4 138.3 10.5 138.4 10.6 138.5 10.8 138.6 10.9 138.7 11 138.9 11.1 139.1 11.1 139.3 11.1 139.5 11.2 139.7 11.2 140.1 11.2 140.5 11.1 140.8 11 141.1 10.9 141.3 10.7 141.5 10.6 141.7 10.4 141.8 10.2 141.9 10 142 9.8 142 9.6 142 9.4L142 8.1 142.1 8.1zM150 5.7C149.7 5.4 149.2 5.3 148.7 5.3 148.2 5.3 147.8 5.4 147.5 5.6 147.2 5.8 146.9 6 146.8 6.3 146.6 6.6 146.5 6.9 146.4 7.3 146.3 7.7 146.3 8 146.3 8.4 146.3 8.8 146.3 9.1 146.4 9.5 146.5 9.8 146.6 10.1 146.8 10.4 147 10.7 147.2 10.9 147.5 11 147.8 11.2 148.1 11.2 148.5 11.2 149.1 11.2 149.6 11 150 10.7 150.4 10.4 150.6 9.9 150.7 9.3L152 9.3C151.9 10.3 151.5 11 150.9 11.5 150.3 12 149.5 12.3 148.5 12.3 147.9 12.3 147.4 12.2 146.9 12 146.4 11.8 146.1 11.5 145.8 11.2 145.5 10.8 145.3 10.4 145.1 9.9 144.9 9.4 144.9 8.9 144.9 8.3 144.9 7.7 145 7.2 145.1 6.7 145.3 6.2 145.5 5.7 145.8 5.4 146.1 5 146.5 4.7 147 4.5 147.5 4.3 148 4.2 148.6 4.2 149 4.2 149.5 4.3 149.8 4.4 150.2 4.5 150.5 4.7 150.8 4.9 151.1 5.1 151.3 5.4 151.5 5.7 151.7 6 151.8 6.4 151.9 6.9L150.6 6.9C150.6 6.4 150.3 6 150 5.7zM153.5 2.9L153.5 1.3 154.8 1.3 154.8 2.9 153.5 2.9zM154.8 4.3L154.8 12.1 153.5 12.1 153.5 4.3 154.8 4.3zM156.6 6.6C156.8 6.1 157 5.7 157.3 5.3 157.6 4.9 158 4.6 158.5 4.4 159 4.2 159.5 4.1 160.1 4.1 160.7 4.1 161.3 4.2 161.7 4.4 162.2 4.6 162.6 4.9 162.9 5.3 163.2 5.7 163.5 6.1 163.6 6.6 163.8 7.1 163.8 7.6 163.8 8.2 163.8 8.8 163.7 9.3 163.6 9.8 163.4 10.3 163.2 10.7 162.9 11.1 162.6 11.5 162.2 11.8 161.7 12 161.2 12.2 160.7 12.3 160.1 12.3 159.5 12.3 158.9 12.2 158.5 12 158.1 11.8 157.6 11.5 157.3 11.1 157 10.7 156.7 10.3 156.6 9.8 156.4 9.3 156.4 8.8 156.4 8.2 156.4 7.7 156.5 7.1 156.6 6.6zM157.9 9.5C158 9.9 158.2 10.2 158.4 10.4 158.6 10.6 158.9 10.8 159.2 11 159.5 11.1 159.8 11.2 160.1 11.2 160.4 11.2 160.7 11.1 161 11 161.3 10.9 161.6 10.7 161.8 10.4 162 10.2 162.2 9.8 162.3 9.5 162.4 9.2 162.5 8.7 162.5 8.2 162.5 7.7 162.4 7.3 162.3 6.9 162.2 6.5 162 6.2 161.8 6 161.6 5.7 161.3 5.6 161 5.4 160.7 5.2 160.4 5.2 160.1 5.2 159.8 5.2 159.5 5.3 159.2 5.4 158.9 5.5 158.6 5.7 158.4 6 158.2 6.3 158 6.6 157.9 6.9 157.8 7.2 157.7 7.7 157.7 8.2 157.7 8.7 157.8 9.1 157.9 9.5zM160.6.5L159.2 2.9 160.2 2.9 162.3.5 160.6.5zM166.7 4.3L166.7 5.5 166.7 5.5C167.2 4.6 168.1 4.1 169.2 4.1 169.7 4.1 170.1 4.2 170.5 4.3 170.8 4.4 171.1 4.6 171.3 4.9 171.5 5.2 171.7 5.4 171.7 5.8 171.8 6.1 171.8 6.5 171.8 7L171.8 12.1 170.5 12.1 170.5 6.8C170.5 6.3 170.4 5.9 170.1 5.7 169.8 5.4 169.4 5.3 168.9 5.3 168.5 5.3 168.2 5.4 167.9 5.5 167.6 5.6 167.4 5.8 167.2 6 167 6.2 166.9 6.5 166.8 6.8 166.7 7.1 166.7 7.4 166.7 7.8L166.7 12.2 165.4 12.2 165.4 4.4 166.7 4.4 166.7 4.3z"/>
  </g>
  <g transform="translate(171 98)">
    <path d="M3.2 11.3L3.2 4.5.5 4.5.5 2.9C.9 2.9 1.2 2.9 1.6 2.8 1.9 2.7 2.3 2.6 2.5 2.5 2.8 2.3 3 2.1 3.2 1.8 3.4 1.5 3.5 1.2 3.6.8L5.3.8 5.3 11.4 3.2 11.4 3.2 11.3zM8.7 3.4C8.9 2.7 9.2 2.1 9.5 1.7 9.9 1.3 10.3 1 10.7.8 11.2.6 11.7.5 12.2.5 12.7.5 13.2.6 13.7.8 14.2 1 14.6 1.3 14.9 1.7 15.3 2.1 15.5 2.7 15.7 3.4 15.9 4.1 16 5 16 6 16 7.1 15.9 7.9 15.7 8.6 15.5 9.3 15.2 9.9 14.9 10.3 14.5 10.7 14.1 11 13.7 11.2 13.2 11.4 12.7 11.5 12.2 11.5 11.7 11.5 11.2 11.4 10.7 11.2 10.2 11 9.8 10.7 9.5 10.3 9.1 9.9 8.9 9.3 8.7 8.6 8.5 7.9 8.4 7 8.4 6 8.4 4.9 8.5 4.1 8.7 3.4zM10.6 7C10.6 7.4 10.7 7.8 10.8 8.2 10.9 8.6 11.1 8.9 11.3 9.2 11.5 9.5 11.9 9.6 12.3 9.6 12.7 9.6 13.1 9.5 13.3 9.2 13.5 8.9 13.7 8.6 13.8 8.2 13.9 7.8 14 7.4 14 7 14 6.6 14 6.2 14 5.9 14 5.7 14 5.5 14 5.2 14 4.9 14 4.7 13.9 4.4 13.9 4.1 13.8 3.9 13.7 3.6 13.6 3.3 13.5 3.1 13.4 2.9 13.3 2.7 13.1 2.5 12.9 2.4 12.7 2.3 12.5 2.2 12.2 2.2 11.9 2.2 11.7 2.3 11.5 2.4 11.3 2.5 11.1 2.7 11 2.9 10.9 3.1 10.8 3.3 10.7 3.6 10.6 3.9 10.6 4.1 10.5 4.4 10.5 4.7 10.5 4.9 10.4 5.2 10.4 5.5 10.4 5.7 10.4 5.9 10.5 6.2 10.5 6.6 10.6 7z"/>
    <polygon points="22.5 .2 18.3 11.5 16.6 11.5 20.8 .2"/>
    <path d="M23.3 3.4C23.5 2.7 23.8 2.1 24.1 1.7 24.5 1.3 24.9 1 25.3.8 25.8.6 26.3.5 26.8.5 27.3.5 27.8.6 28.3.8 28.8 1 29.2 1.3 29.5 1.7 29.9 2.1 30.1 2.7 30.3 3.4 30.5 4.1 30.6 5 30.6 6 30.6 7.1 30.5 7.9 30.3 8.6 30.1 9.3 29.8 9.9 29.5 10.3 29.1 10.7 28.7 11 28.3 11.2 27.8 11.4 27.3 11.5 26.8 11.5 26.3 11.5 25.8 11.4 25.3 11.2 24.8 11 24.4 10.7 24.1 10.3 23.7 9.9 23.5 9.3 23.3 8.6 23.1 7.9 23 7 23 6 23 4.9 23.1 4.1 23.3 3.4zM25.1 7C25.1 7.4 25.2 7.8 25.3 8.2 25.4 8.6 25.6 8.9 25.8 9.2 26 9.5 26.4 9.6 26.8 9.6 27.2 9.6 27.6 9.5 27.8 9.2 28 8.9 28.2 8.6 28.3 8.2 28.4 7.8 28.5 7.4 28.5 7 28.5 6.6 28.5 6.2 28.5 5.9 28.5 5.7 28.5 5.5 28.5 5.2 28.5 4.9 28.5 4.7 28.4 4.4 28.4 4.1 28.3 3.9 28.2 3.6 28.1 3.3 28 3.1 27.9 2.9 27.8 2.7 27.6 2.5 27.4 2.4 27.2 2.3 27 2.2 26.7 2.2 26.4 2.2 26.2 2.3 26 2.4 25.8 2.5 25.6 2.7 25.5 2.9 25.4 3.1 25.3 3.3 25.2 3.6 25.1 3.9 25.1 4.1 25 4.4 25 4.7 25 4.9 24.9 5.2 24.9 5.5 24.9 5.7 24.9 5.9 25.1 6.2 25.1 6.6 25.1 7zM34.5 2.5L34.1 4.9 34.1 4.9C34.4 4.6 34.7 4.4 35 4.3 35.3 4.2 35.7 4.1 36.1 4.1 36.6 4.1 37.1 4.2 37.5 4.4 37.9 4.6 38.2 4.8 38.5 5.2 38.8 5.5 39 5.9 39.1 6.3 39.2 6.7 39.3 7.2 39.3 7.7 39.3 8.2 39.2 8.7 39 9.2 38.8 9.7 38.5 10.1 38.1 10.4 37.7 10.7 37.3 11 36.9 11.2 36.4 11.4 35.9 11.5 35.4 11.5 34.9 11.5 34.4 11.4 33.9 11.3 33.4 11.2 33 11 32.7 10.7 32.3 10.4 32 10.1 31.8 9.7 31.6 9.3 31.5 8.8 31.5 8.2L33.6 8.2C33.7 8.7 33.8 9.1 34.1 9.4 34.4 9.7 34.8 9.8 35.3 9.8 35.6 9.8 35.8 9.7 36.1 9.6 36.3 9.5 36.5 9.3 36.7 9.1 36.9 8.9 37 8.7 37.1 8.5 37.2 8.3 37.2 8 37.2 7.7 37.2 7.4 37.2 7.2 37.1 6.9 37 6.6 36.9 6.4 36.7 6.3 36.5 6.1 36.3 6 36.1 5.9 35.9 5.8 35.6 5.7 35.3 5.7 34.9 5.7 34.6 5.8 34.4 5.9 34.2 6 33.9 6.2 33.7 6.5L31.8 6.5 32.8.7 38.7.7 38.7 2.5 34.5 2.5 34.5 2.5z"/>
    <polygon points="45.8 .2 41.6 11.5 39.9 11.5 44.1 .2"/>
    <path d="M46.7 3.1C46.9 2.6 47.1 2.1 47.4 1.7 47.7 1.3 48.1 1 48.6.8 49.1.6 49.6.5 50.3.5 50.8.5 51.2.6 51.7.7 52.1.9 52.5 1.1 52.9 1.3 53.2 1.6 53.5 1.9 53.7 2.3 53.9 2.7 54 3.2 54 3.7 54 4.2 53.9 4.7 53.7 5.1 53.5 5.5 53.3 5.8 53 6.1 52.7 6.4 52.4 6.7 52 6.9 51.6 7.1 51.3 7.4 50.9 7.6 50.5 7.8 50.2 8.1 49.8 8.4 49.5 8.7 49.2 9 48.9 9.4L53.9 9.4 53.9 11.2 46.1 11.2C46.1 10.6 46.2 10.1 46.4 9.6 46.6 9.1 46.8 8.7 47.1 8.4 47.4 8 47.8 7.7 48.2 7.4 48.6 7.1 49 6.8 49.5 6.5 49.7 6.3 50 6.2 50.2 6 50.5 5.8 50.7 5.7 50.9 5.4 51.1 5.2 51.3 5 51.4 4.7 51.5 4.4 51.6 4.2 51.6 3.8 51.6 3.3 51.5 2.9 51.2 2.6 50.9 2.3 50.5 2.2 50.1 2.2 49.8 2.2 49.5 2.3 49.3 2.4 49.1 2.5 48.9 2.7 48.8 3 48.7 3.2 48.6 3.5 48.5 3.8 48.4 4.1 48.4 4.4 48.4 4.7L46.3 4.7C46.5 4.2 46.5 3.6 46.7 3.1zM55.2 3.4C55.4 2.7 55.7 2.1 56 1.7 56.4 1.3 56.8 1 57.2.8 57.7.6 58.2.5 58.7.5 59.2.5 59.7.6 60.2.8 60.7 1 61.1 1.3 61.4 1.7 61.8 2.1 62 2.7 62.2 3.4 62.4 4.1 62.5 5 62.5 6 62.5 7.1 62.4 7.9 62.2 8.6 62 9.3 61.7 9.9 61.4 10.3 61 10.7 60.6 11 60.2 11.2 59.7 11.4 59.2 11.5 58.7 11.5 58.2 11.5 57.7 11.4 57.2 11.2 56.7 11 56.3 10.7 56 10.3 55.6 9.9 55.4 9.3 55.2 8.6 55 7.9 54.9 7 54.9 6 54.9 4.9 55 4.1 55.2 3.4zM57.1 7C57.1 7.4 57.2 7.8 57.3 8.2 57.4 8.6 57.6 8.9 57.8 9.2 58 9.5 58.4 9.6 58.8 9.6 59.2 9.6 59.6 9.5 59.8 9.2 60 8.9 60.2 8.6 60.3 8.2 60.4 7.8 60.5 7.4 60.5 7 60.5 6.6 60.5 6.2 60.5 5.9 60.5 5.7 60.5 5.5 60.5 5.2 60.5 4.9 60.5 4.7 60.4 4.4 60.4 4.1 60.3 3.9 60.2 3.6 60.1 3.3 60 3.1 59.9 2.9 59.8 2.7 59.6 2.5 59.4 2.4 59.2 2.3 59 2.2 58.7 2.2 58.4 2.2 58.2 2.3 58 2.4 57.8 2.5 57.6 2.7 57.5 2.9 57.4 3.1 57.3 3.3 57.2 3.6 57.1 3.9 57.1 4.1 57 4.4 57 4.7 57 4.9 56.9 5.2 56.9 5.5 56.9 5.7 56.9 5.9 57.1 6.2 57.1 6.6 57.1 7zM68.7 2.5C68.4 2.2 68.1 2.1 67.8 2.1 67.4 2.1 67.1 2.2 66.8 2.4 66.5 2.6 66.3 2.9 66.2 3.2 66 3.5 65.9 3.9 65.9 4.2 65.8 4.6 65.8 4.9 65.8 5.2L65.8 5.2C66.1 4.8 66.4 4.5 66.8 4.3 67.2 4.1 67.6 4 68.2 4 68.7 4 69.1 4.1 69.5 4.3 69.9 4.5 70.3 4.8 70.6 5.1 70.9 5.4 71.1 5.8 71.2 6.2 71.3 6.6 71.4 7 71.4 7.5 71.4 8 71.3 8.5 71.1 9 70.9 9.5 70.7 9.9 70.3 10.2 70 10.5 69.6 10.8 69.1 11 68.6 11.2 68.1 11.3 67.6 11.3 66.8 11.3 66.1 11.1 65.6 10.8 65.1 10.5 64.7 10.1 64.3 9.6 64 9.1 63.8 8.5 63.7 7.9 63.6 7.3 63.5 6.6 63.5 5.9 63.5 5.2 63.6 4.6 63.7 3.9 63.9 3.2 64.1 2.7 64.4 2.1 64.7 1.6 65.2 1.1 65.7.8 66.2.5 66.9.3 67.6.3 68.1.3 68.5.4 68.9.5 69.3.6 69.6.8 69.9 1.1 70.2 1.3 70.4 1.6 70.6 2 70.8 2.4 70.9 2.8 71 3.3L69 3.3C69.1 3.1 68.9 2.8 68.7 2.5zM66.9 6C66.7 6.1 66.5 6.2 66.4 6.4 66.3 6.6 66.2 6.8 66.1 7 66 7.2 66 7.5 66 7.7 66 7.9 66 8.2 66.1 8.4 66.2 8.6 66.3 8.8 66.4 9 66.5 9.2 66.7 9.3 66.9 9.4 67.1 9.5 67.4 9.6 67.6 9.6 67.9 9.6 68.1 9.5 68.3 9.4 68.5 9.3 68.7 9.1 68.8 9 68.9 8.8 69 8.6 69.1 8.4 69.2 8.2 69.2 7.9 69.2 7.7 69.2 7.4 69.2 7.2 69.1 7 69 6.8 68.9 6.6 68.8 6.4 68.7 6.2 68.5 6.1 68.3 5.9 68.1 5.8 67.9 5.7 67.6 5.7 67.3 5.8 67.1 5.8 66.9 6zM73 2.1C73.2 1.7 73.5 1.4 73.8 1.2 74.1 1 74.5.8 74.9.7 75.3.6 75.8.5 76.2.5 76.9.5 77.4.6 77.9.8 78.4 1 78.7 1.2 79 1.5 79.3 1.8 79.5 2.1 79.6 2.4 79.7 2.7 79.8 3 79.8 3.3 79.8 3.8 79.7 4.3 79.4 4.7 79.1 5.1 78.8 5.4 78.2 5.5L78.2 5.5C78.8 5.6 79.3 5.9 79.7 6.4 80 6.9 80.2 7.4 80.2 8.1 80.2 8.7 80.1 9.2 79.9 9.6 79.7 10 79.4 10.4 79 10.6 78.6 10.9 78.2 11.1 77.7 11.2 77.2 11.3 76.7 11.4 76.3 11.4 75.8 11.4 75.3 11.3 74.8 11.2 74.3 11.1 73.9 10.9 73.5 10.6 73.1 10.3 72.8 10 72.6 9.6 72.4 9.2 72.3 8.7 72.3 8.1 72.3 7.4 72.5 6.9 72.8 6.4 73.1 5.9 73.6 5.6 74.3 5.5L74.3 5.5C73.8 5.4 73.4 5.1 73.1 4.7 72.8 4.3 72.7 3.8 72.7 3.3 72.6 2.9 72.7 2.5 73 2.1zM74.5 8.8C74.6 9 74.7 9.2 74.9 9.4 75.1 9.6 75.3 9.7 75.5 9.8 75.7 9.9 76 9.9 76.2 9.9 76.5 9.9 76.7 9.9 76.9 9.8 77.1 9.7 77.3 9.6 77.5 9.4 77.7 9.2 77.8 9.1 77.9 8.8 78 8.6 78 8.3 78 8.1 78 7.8 78 7.6 77.9 7.4 77.8 7.2 77.7 7 77.5 6.9 77.3 6.7 77.1 6.6 76.9 6.6 76.7 6.5 76.4 6.5 76.2 6.5 75.7 6.5 75.2 6.6 74.9 6.9 74.5 7.2 74.4 7.6 74.4 8.1 74.3 8.3 74.4 8.6 74.5 8.8zM75.1 4.6C75.4 4.8 75.8 5 76.2 5 76.7 5 77 4.9 77.3 4.6 77.6 4.4 77.8 4 77.8 3.6 77.8 3.5 77.8 3.3 77.7 3.1 77.7 2.9 77.6 2.8 77.5 2.6 77.4 2.4 77.2 2.3 77 2.2 76.8 2.1 76.5 2 76.2 2 76 2 75.8 2 75.6 2.1 75.4 2.2 75.2 2.3 75.1 2.4 74.9 2.5 74.8 2.7 74.7 2.9 74.6 3.1 74.6 3.3 74.6 3.5 74.6 4 74.7 4.4 75.1 4.6z"/>
    <polygon points="86.1 1.7 86.5 2.9 84.7 3.5 85.8 5 84.8 5.7 83.7 4.1 82.6 5.7 81.6 5 82.7 3.5 81 2.9 81.4 1.7 83.1 2.4 83.1 .5 84.3 .5 84.3 2.4"/>
  </g>
</svg>
