<?xml version="1.0" encoding="utf-8"?>
<!-- Generator: Adobe Illustrator 19.0.0, SVG Export Plug-In . SVG Version: 6.00 Build 0)  -->
<svg version="1.1" id="Layer_1" xmlns="http://www.w3.org/2000/svg" xmlns:xlink="http://www.w3.org/1999/xlink" x="0px" y="0px"
	 viewBox="-258 241 274 132" style="enable-background:new -258 241 274 132;" xml:space="preserve">
<style type="text/css">
	.st0{fill:#FFFFFF;}
</style>
<rect x="-242.2" y="300.7" class="st0" width="243.3" height="8.9"/>
<rect x="-242.2" y="331.2" class="st0" width="243.3" height="1.8"/>
<rect x="-242.2" y="354.9" class="st0" width="243.3" height="5"/>
<path class="st0" d="M15.6,372.7H-258V241H15.6V372.7z M-256.2,370.9h270V242.8h-270V370.9z"/>
<path class="st0" d="M-202.4,257.1c-4.1-4.1-9.6-6.4-15.4-6.4s-11.3,2.3-15.4,6.4c-4.1,4.1-6.4,9.6-6.4,15.4s2.3,11.3,6.4,15.4
	c4.1,4.1,9.6,6.4,15.4,6.4s11.3-2.3,15.4-6.4c4.1-4.1,6.4-9.6,6.4-15.4S-198.2,261.2-202.4,257.1z M-200.8,272.5c0,9.4-7.6,17-17,17
	c-9.4,0-17-7.6-17-17s7.6-17,17-17C-208.4,255.6-200.8,263.2-200.8,272.5z"/>
<path class="st0" d="M-205.2,272.5c-3.9-0.9-10.4-2.4-13.7,1.2l-1,1.1l-0.1,0.1l-0.1,0.1c-0.7,0.7-1.3,1.2-1.3,1.2l-0.7,0.6l0.9,0.3
	c1.8,0.6,3.4,0.8,4.9,0.8c4.7,0,8.2-2.2,10.3-3.6c0.5-0.3,0.8-0.5,1.1-0.7l1.2-0.6L-205.2,272.5z M-218.1,274.3
	c-0.1,0.1-0.2,0.1-0.3,0.2c-0.6,0.6-1.1,1-1.1,1c0.1-0.1,0.3-0.3,0.4-0.5c0.1-0.1,0.2-0.3,0.4-0.4c0.3-0.4,0.6-0.7,1.1-0.9
	c0.5-0.2,1-0.3,1.5-0.3c0.8,0,1.6,0,2.4,0.2c0.4,0.1,0.8,0.2,1.2,0.2c0.2,0.1,0.4,0.1,0.7,0.2c0.2,0.1,0.4,0.2,0.7,0.2
	C-213.8,273.8-215.6,273.1-218.1,274.3z"/>
<path class="st0" d="M-216.7,264.6l-2.7-6.2l-0.4,1.5c-0.4,1.5-1,2.9-1.7,4.2c-1.2,2.5-2.4,4.8-1.1,7.8c0.4,1,1.2,2.1,1.6,2.7
	l0.4,0.5l0.3-0.4l-0.1,1.3l1.4-1.8C-217.1,271.8-215,268.4-216.7,264.6z M-219.1,273.8c0,0-0.3,0.7-0.9,0.3c0.1-0.1,0.2-0.2,0.3-0.4
	c1.3-2.1,0.8-3.8,0.6-6.3C-218.6,269.9-218.5,271.6-219.1,273.8z"/>
<g transform="translate(75 16)">
	<path class="st0" d="M-257.6,241.3h15.7c7.5,0,9.1,4.3,9.1,7.2s-1.4,4.5-3.5,5.6c2.6,0.9,5,2.9,5,7.1c0,5.7-5,8.7-10,8.7h-16.3
		V241.3z M-248.8,252.5h4.7c1.8,0,3-0.5,3-2.4c0-1.4-1.2-2-3-2h-4.7V252.5z M-248.8,263.1h5.2c1.8,0,3.4-0.5,3.4-2.7
		c0-1.7-1-2.6-3.1-2.6h-5.5V263.1L-248.8,263.1z M-220.7,246.9h-7.9v-5.6h7.9V246.9z M-228.6,249.1h7.9V270h-7.9V249.1z
		 M-206.5,270.5c-7.8,0-11.3-5.2-11.3-10.9c0-5.8,3.5-10.9,11.3-10.9s11.4,5.1,11.4,10.9C-195.1,265.3-198.7,270.5-206.5,270.5z
		 M-206.5,254.4c-3,0-3.4,2.9-3.4,5.1s0.4,5.2,3.4,5.2s3.4-3,3.4-5.2S-203.5,254.4-206.5,254.4z"/>
	<polygon class="st0" points="-192.4,241.3 -170.3,241.3 -170.3,248.6 -183.6,248.6 -183.6,252.2 -172.2,252.2 -172.2,259 
		-183.6,259 -183.6,270 -192.4,270 	"/>
	<path class="st0" d="M-147.7,265.3c0,1.6,0.1,3.3,1,4.7h-8.1c-0.2-0.6-0.3-1.4-0.3-2h-0.1c-1.7,1.9-4.1,2.5-6.7,2.5
		c-4,0-7.3-1.9-7.3-6.3c0-6.6,7.7-6.3,11.8-7.1c1.1-0.2,2.2-0.5,2.2-1.8c0-1.4-1.3-1.9-2.6-1.9c-2.4,0-2.9,1.2-3,2.1h-7.4
		c0.1-2.9,1.6-4.7,3.6-5.6c2-1,4.7-1.2,7.1-1.2c9.9,0,9.9,4.1,9.9,8.1L-147.7,265.3L-147.7,265.3z M-155.3,260.6c-1,0.5-2,0.8-3.1,1
		c-1.8,0.4-2.7,0.8-2.7,2.2c0,1,1,1.9,2.5,1.9c1.8,0,3.2-1.1,3.3-3.2V260.6L-155.3,260.6z M-130.9,257c-0.1-0.8-0.4-1.5-0.9-2
		c-0.5-0.4-1.2-0.7-2-0.7c-3,0-3.5,2.6-3.5,5.2c0,2.5,0.4,5.1,3.5,5.1c1.7,0,2.9-1.4,3.1-3h7.6c-0.4,2.8-1.7,5-3.6,6.5
		c-1.9,1.5-4.4,2.3-7.2,2.3c-6.3,0-11.3-4.3-11.3-10.9s5-10.9,11.3-10.9c5.5,0,10.1,2.7,10.6,8.4H-130.9z M-111,249.1h4.3v4.9h-4.3
		v7.3c0,1.9,0.4,2.8,2.4,2.8c0.6,0,1.2,0,1.8-0.1v6c-1.6,0-3.4,0.2-5.1,0.2c-3.4,0-7.1-0.5-7.1-6.2v-10h-3.5v-4.9h3.5v-6.3h7.9v6.3
		H-111z M-93,255.2c0-0.7-0.4-1.2-0.9-1.6c-0.5-0.4-1.1-0.6-1.8-0.6c-1.1,0-2.4,0.2-2.4,1.6c0,0.6,0.5,0.9,0.9,1.1
		c1.3,0.6,4.3,0.7,7,1.6c2.6,0.8,5,2.4,5,5.8c0,5.8-5.5,7.3-10.6,7.3c-4.9,0-10.3-2-10.4-7.3h7.6c0,0.7,0.4,1.3,1,1.8
		c0.4,0.4,1.2,0.6,2.1,0.6c1,0,2.7-0.4,2.7-1.6c0-1.2-0.7-1.6-4.4-2.2c-6.1-1-8.5-3-8.5-6.5c0-5.3,5.7-6.6,9.8-6.6
		c4.5,0,9.9,1.2,10.1,6.6H-93L-93,255.2z"/>
</g>
<g transform="translate(19 73)">
	<polygon class="st0" points="-250.3,242.4 -250.3,243.6 -255.9,243.6 -255.9,247 -251,247 -251,248.2 -255.9,248.2 -255.9,253.1 
		-257.3,253.1 -257.3,242.4 	"/>
	<path class="st0" d="M-243.4,252.6c-0.6,0.4-1.3,0.7-2.2,0.7c-0.6,0-1.2-0.1-1.6-0.3c-0.5-0.2-0.8-0.5-1.2-0.8
		c-0.3-0.4-0.5-0.8-0.7-1.3c-0.2-0.5-0.2-1-0.3-1.6c0-0.6,0.1-1.1,0.3-1.6c0.2-0.5,0.4-0.9,0.8-1.3c0.3-0.4,0.7-0.6,1.2-0.8
		c0.4-0.2,0.9-0.3,1.5-0.3c0.7,0,1.3,0.1,1.7,0.4c0.4,0.3,0.8,0.7,1.1,1.1c0.3,0.4,0.5,0.9,0.6,1.4c0.1,0.5,0.1,1,0.1,1.5h-5.9
		c0,0.3,0,0.7,0.1,1c0.1,0.3,0.2,0.6,0.4,0.8s0.5,0.4,0.8,0.6c0.3,0.1,0.7,0.2,1.1,0.2c0.5,0,1-0.1,1.3-0.4c0.3-0.3,0.6-0.6,0.7-1.1
		h1.3C-242.5,251.5-242.8,252.2-243.4,252.6z M-243.7,247.6c-0.1-0.3-0.3-0.5-0.5-0.7c-0.2-0.2-0.4-0.4-0.7-0.5
		c-0.3-0.1-0.6-0.2-0.9-0.2s-0.6,0.1-0.9,0.2c-0.3,0.1-0.5,0.3-0.7,0.5c-0.2,0.2-0.3,0.4-0.5,0.7c-0.1,0.3-0.2,0.6-0.2,0.9h4.5
		C-243.5,248.2-243.6,247.9-243.7,247.6z M-236.2,246.7c-0.3-0.3-0.8-0.4-1.3-0.4s-0.9,0.1-1.2,0.3c-0.3,0.2-0.6,0.4-0.7,0.7
		c-0.2,0.3-0.3,0.6-0.4,1c-0.1,0.4-0.1,0.7-0.1,1.1c0,0.4,0,0.7,0.1,1.1c0.1,0.3,0.2,0.6,0.4,0.9c0.2,0.3,0.4,0.5,0.7,0.6
		c0.3,0.2,0.6,0.2,1,0.2c0.6,0,1.1-0.2,1.5-0.5c0.4-0.3,0.6-0.8,0.7-1.4h1.3c-0.1,1-0.5,1.7-1.1,2.2c-0.6,0.5-1.4,0.8-2.4,0.8
		c-0.6,0-1.1-0.1-1.6-0.3s-0.8-0.5-1.1-0.8c-0.3-0.4-0.5-0.8-0.7-1.3c-0.2-0.5-0.2-1-0.2-1.6c0-0.6,0.1-1.1,0.2-1.6
		c0.2-0.5,0.4-1,0.7-1.3c0.3-0.4,0.7-0.7,1.2-0.9s1-0.3,1.6-0.3c0.4,0,0.9,0.1,1.2,0.2c0.4,0.1,0.7,0.3,1,0.5
		c0.3,0.2,0.5,0.5,0.7,0.8s0.3,0.7,0.4,1.2h-1.3C-235.6,247.4-235.9,247-236.2,246.7z M-231.5,242.4v4.1l0,0
		c0.1-0.2,0.2-0.4,0.4-0.6c0.2-0.2,0.4-0.3,0.6-0.4s0.5-0.2,0.7-0.2c0.2-0.1,0.5-0.1,0.7-0.1c0.5,0,0.9,0.1,1.3,0.2
		c0.3,0.1,0.6,0.3,0.8,0.6s0.4,0.5,0.4,0.9c0.1,0.3,0.1,0.7,0.1,1.2v5.1h-1.3v-5.3c0-0.5-0.1-0.9-0.4-1.1c-0.3-0.3-0.7-0.4-1.2-0.4
		c-0.4,0-0.7,0.1-1,0.2c-0.3,0.1-0.5,0.3-0.7,0.5c-0.2,0.2-0.3,0.5-0.4,0.8c-0.1,0.3-0.1,0.6-0.1,1v4.4h-1.3v-10.9H-231.5z
		 M-217.4,253.1c-0.2,0.1-0.5,0.2-0.9,0.2c-0.3,0-0.6-0.1-0.8-0.3c-0.2-0.2-0.3-0.5-0.3-0.9c-0.4,0.4-0.8,0.7-1.2,0.9
		c-0.4,0.2-1,0.3-1.5,0.3c-0.4,0-0.7,0-1-0.1c-0.3-0.1-0.6-0.2-0.8-0.4c-0.2-0.2-0.4-0.4-0.6-0.7c-0.1-0.3-0.2-0.6-0.2-1
		c0-0.4,0.1-0.8,0.2-1.1c0.2-0.3,0.3-0.5,0.6-0.7c0.2-0.2,0.5-0.3,0.8-0.4c0.3-0.1,0.6-0.2,1-0.2c0.4-0.1,0.7-0.1,1-0.2
		c0.3,0,0.6-0.1,0.8-0.2c0.2-0.1,0.4-0.2,0.6-0.3c0.1-0.1,0.2-0.3,0.2-0.5c0-0.3-0.1-0.5-0.2-0.7c-0.1-0.2-0.2-0.3-0.4-0.4
		c-0.2-0.1-0.4-0.2-0.6-0.2s-0.4,0-0.6,0c-0.5,0-1,0.1-1.4,0.3c-0.4,0.2-0.6,0.6-0.6,1.2h-1.3c0-0.5,0.1-0.9,0.3-1.2
		s0.4-0.6,0.7-0.8c0.3-0.2,0.6-0.4,1-0.4c0.4-0.1,0.8-0.1,1.2-0.1c0.4,0,0.7,0,1,0.1c0.3,0,0.7,0.2,0.9,0.3c0.3,0.2,0.5,0.4,0.7,0.7
		s0.3,0.6,0.3,1.1v4c0,0.3,0,0.5,0.1,0.7c0,0.1,0.2,0.2,0.4,0.2c0.1,0,0.2,0,0.4-0.1v0.9H-217.4z M-219.5,249.1
		c-0.2,0.1-0.4,0.2-0.6,0.3c-0.3,0.1-0.5,0.1-0.8,0.1c-0.3,0-0.6,0.1-0.9,0.1s-0.6,0.1-0.8,0.2c-0.2,0.1-0.4,0.2-0.6,0.4
		c-0.1,0.2-0.2,0.4-0.2,0.8c0,0.2,0,0.4,0.1,0.5c0.1,0.1,0.2,0.3,0.3,0.4c0.1,0.1,0.3,0.2,0.5,0.2s0.4,0.1,0.6,0.1
		c0.4,0,0.8-0.1,1.1-0.2s0.5-0.3,0.7-0.4c0.2-0.2,0.3-0.4,0.4-0.6c0.1-0.2,0.1-0.4,0.1-0.6v-1.3H-219.5z M-206.4,253.1V252l0,0
		c-0.2,0.4-0.5,0.7-1,0.9c-0.5,0.2-0.9,0.3-1.5,0.3c-0.6,0-1.1-0.1-1.6-0.3c-0.4-0.2-0.8-0.5-1.1-0.9c-0.3-0.4-0.5-0.8-0.7-1.3
		s-0.2-1-0.2-1.6c0-0.6,0.1-1.1,0.2-1.6c0.1-0.5,0.4-0.9,0.7-1.3c0.3-0.4,0.7-0.7,1.1-0.9s1-0.3,1.6-0.3c0.2,0,0.4,0,0.6,0.1
		c0.2,0,0.5,0.1,0.7,0.2c0.2,0.1,0.4,0.2,0.7,0.4c0.2,0.2,0.4,0.3,0.5,0.6l0,0v-4h1.3v10.8H-206.4L-206.4,253.1z M-211,250.4
		c0.1,0.3,0.2,0.7,0.4,0.9c0.2,0.3,0.4,0.5,0.8,0.6c0.3,0.2,0.7,0.2,1.1,0.2c0.4,0,0.8-0.1,1.1-0.3c0.3-0.2,0.5-0.4,0.7-0.7
		c0.2-0.3,0.3-0.6,0.4-0.9c0.1-0.4,0.1-0.7,0.1-1.1c0-0.4,0-0.8-0.1-1.1c-0.1-0.4-0.2-0.7-0.4-0.9c-0.2-0.3-0.4-0.5-0.8-0.7
		c-0.3-0.2-0.7-0.2-1.1-0.2c-0.4,0-0.8,0.1-1.1,0.3c-0.3,0.2-0.5,0.4-0.7,0.7c-0.2,0.3-0.3,0.6-0.4,1c-0.1,0.4-0.1,0.7-0.1,1.1
		C-211.1,249.7-211.1,250-211,250.4z M-197.6,252.6c-0.6,0.4-1.3,0.7-2.2,0.7c-0.6,0-1.2-0.1-1.6-0.3c-0.5-0.2-0.8-0.5-1.2-0.8
		c-0.3-0.4-0.5-0.8-0.7-1.3s-0.2-1-0.3-1.6c0-0.6,0.1-1.1,0.3-1.6s0.4-0.9,0.8-1.3c0.3-0.4,0.7-0.6,1.2-0.8c0.4-0.2,0.9-0.3,1.5-0.3
		c0.7,0,1.3,0.1,1.7,0.4c0.4,0.3,0.8,0.7,1.1,1.1c0.3,0.4,0.5,0.9,0.6,1.4c0.1,0.5,0.1,1,0.1,1.5h-5.8c0,0.3,0,0.7,0.1,1
		s0.2,0.6,0.4,0.8c0.2,0.2,0.5,0.4,0.8,0.6c0.3,0.1,0.7,0.2,1.1,0.2c0.5,0,1-0.1,1.3-0.4c0.3-0.3,0.6-0.6,0.7-1.1h1.3
		C-196.6,251.5-197,252.2-197.6,252.6z M-197.9,247.6c-0.1-0.3-0.3-0.5-0.5-0.7c-0.2-0.2-0.4-0.4-0.7-0.5c-0.3-0.1-0.6-0.2-0.9-0.2
		s-0.6,0.1-0.9,0.2c-0.3,0.1-0.5,0.3-0.7,0.5c-0.2,0.2-0.3,0.4-0.5,0.7c-0.1,0.3-0.2,0.6-0.2,0.9h4.5
		C-197.7,248.2-197.8,247.9-197.9,247.6z M-184.9,253.1V252l0,0c-0.2,0.4-0.5,0.7-1,0.9c-0.5,0.2-0.9,0.3-1.5,0.3
		c-0.6,0-1.1-0.1-1.6-0.3c-0.4-0.2-0.8-0.5-1.1-0.9c-0.3-0.4-0.5-0.8-0.7-1.3s-0.2-1-0.2-1.6c0-0.6,0.1-1.1,0.2-1.6
		c0.1-0.5,0.4-0.9,0.7-1.3c0.3-0.4,0.7-0.7,1.1-0.9s1-0.3,1.6-0.3c0.2,0,0.4,0,0.6,0.1c0.2,0,0.5,0.1,0.7,0.2
		c0.2,0.1,0.4,0.2,0.7,0.4c0.2,0.2,0.4,0.3,0.5,0.6l0,0v-4h1.3v10.8H-184.9L-184.9,253.1z M-189.5,250.4c0.1,0.3,0.2,0.7,0.4,0.9
		c0.2,0.3,0.4,0.5,0.8,0.6c0.3,0.2,0.7,0.2,1.1,0.2c0.4,0,0.8-0.1,1.1-0.3c0.3-0.2,0.5-0.4,0.7-0.7c0.2-0.3,0.3-0.6,0.4-0.9
		c0.1-0.4,0.1-0.7,0.1-1.1c0-0.4,0-0.8-0.1-1.1c-0.1-0.4-0.2-0.7-0.4-0.9c-0.2-0.3-0.4-0.5-0.8-0.7c-0.3-0.2-0.7-0.2-1.1-0.2
		c-0.4,0-0.8,0.1-1.1,0.3c-0.3,0.2-0.5,0.4-0.7,0.7c-0.2,0.3-0.3,0.6-0.4,1c-0.1,0.4-0.1,0.7-0.1,1.1
		C-189.7,249.7-189.6,250-189.5,250.4z M-176.1,252.6c-0.6,0.4-1.3,0.7-2.2,0.7c-0.6,0-1.2-0.1-1.6-0.3c-0.5-0.2-0.8-0.5-1.2-0.8
		c-0.3-0.4-0.5-0.8-0.7-1.3s-0.2-1-0.3-1.6c0-0.6,0.1-1.1,0.3-1.6s0.4-0.9,0.8-1.3c0.3-0.4,0.7-0.6,1.2-0.8c0.4-0.2,0.9-0.3,1.5-0.3
		c0.7,0,1.3,0.1,1.7,0.4c0.4,0.3,0.8,0.7,1.1,1.1c0.3,0.4,0.5,0.9,0.6,1.4c0.1,0.5,0.1,1,0.1,1.5h-5.8c0,0.3,0,0.7,0.1,1
		s0.2,0.6,0.4,0.8c0.2,0.2,0.5,0.4,0.8,0.6c0.3,0.1,0.7,0.2,1.1,0.2c0.5,0,1-0.1,1.3-0.4c0.3-0.3,0.6-0.6,0.7-1.1h1.3
		C-175.2,251.5-175.5,252.2-176.1,252.6z M-176.4,247.6c-0.1-0.3-0.3-0.5-0.5-0.7c-0.2-0.2-0.4-0.4-0.7-0.5
		c-0.3-0.1-0.6-0.2-0.9-0.2s-0.6,0.1-0.9,0.2c-0.3,0.1-0.5,0.3-0.7,0.5c-0.2,0.2-0.3,0.4-0.5,0.7c-0.1,0.3-0.2,0.6-0.2,0.9h4.5
		C-176.3,248.2-176.3,247.9-176.4,247.6z M-167.7,255.3c-0.6,0.6-1.5,1-2.7,1c-0.4,0-0.7,0-1.1-0.1c-0.4-0.1-0.7-0.2-1-0.4
		s-0.6-0.4-0.8-0.7c-0.2-0.3-0.3-0.6-0.3-1.1h1.3c0,0.2,0.1,0.4,0.2,0.6c0.1,0.2,0.3,0.3,0.5,0.4c0.2,0.1,0.4,0.2,0.6,0.2
		s0.5,0.1,0.7,0.1c0.4,0,0.8-0.1,1.1-0.2c0.3-0.1,0.5-0.3,0.7-0.6s0.3-0.6,0.4-0.9c0.1-0.4,0.1-0.8,0.1-1.2v-0.5l0,0
		c-0.2,0.5-0.6,0.8-1,1.1c-0.4,0.2-0.9,0.3-1.4,0.3c-0.6,0-1.1-0.1-1.5-0.3c-0.4-0.2-0.8-0.5-1.1-0.9c-0.3-0.4-0.5-0.8-0.7-1.3
		c-0.1-0.5-0.2-1-0.2-1.5s0.1-0.9,0.2-1.4c0.1-0.5,0.3-0.9,0.6-1.3c0.3-0.4,0.7-0.7,1.1-1c0.5-0.3,1-0.4,1.7-0.4
		c0.5,0,0.9,0.1,1.4,0.3c0.4,0.2,0.7,0.5,1,1l0,0v-1.1h1.2v7.1C-166.8,253.8-167.1,254.7-167.7,255.3z M-169.3,251.8
		c0.3-0.2,0.5-0.4,0.7-0.7c0.2-0.3,0.3-0.6,0.4-1c0.1-0.4,0.1-0.7,0.1-1.1c0-0.3,0-0.7-0.1-1c-0.1-0.3-0.2-0.6-0.4-0.9
		c-0.2-0.3-0.4-0.5-0.7-0.6c-0.3-0.2-0.6-0.2-1-0.2c-0.4,0-0.8,0.1-1.1,0.2c-0.3,0.2-0.5,0.4-0.7,0.6c-0.2,0.3-0.3,0.6-0.4,0.9
		s-0.1,0.7-0.1,1.1c0,0.4,0,0.7,0.1,1.1c0.1,0.4,0.2,0.7,0.4,1c0.2,0.3,0.4,0.5,0.7,0.7c0.3,0.2,0.6,0.3,1.1,0.3
		C-170,252.1-169.6,252-169.3,251.8z M-163.7,245.3v1.7l0,0c0.3-0.6,0.7-1.1,1.1-1.4c0.5-0.3,1-0.4,1.7-0.4v1.4
		c-0.5,0-0.9,0.1-1.3,0.2c-0.4,0.1-0.7,0.3-0.9,0.6c-0.2,0.3-0.4,0.6-0.5,1c-0.1,0.4-0.2,0.8-0.2,1.3v3.5h-1.3v-7.8L-163.7,245.3
		L-163.7,245.3z M-153,253.1c-0.2,0.1-0.5,0.2-0.9,0.2c-0.3,0-0.6-0.1-0.8-0.3s-0.3-0.5-0.3-0.9c-0.4,0.4-0.8,0.7-1.2,0.9
		c-0.4,0.2-1,0.3-1.5,0.3c-0.4,0-0.7,0-1-0.1c-0.3-0.1-0.6-0.2-0.8-0.4s-0.4-0.4-0.6-0.7c-0.1-0.3-0.2-0.6-0.2-1
		c0-0.4,0.1-0.8,0.2-1.1c0.2-0.3,0.3-0.5,0.6-0.7c0.2-0.2,0.5-0.3,0.8-0.4c0.3-0.1,0.6-0.2,1-0.2c0.4-0.1,0.7-0.1,1-0.2
		c0.3,0,0.6-0.1,0.8-0.2c0.2-0.1,0.4-0.2,0.6-0.3c0.1-0.1,0.2-0.3,0.2-0.5c0-0.3-0.1-0.5-0.2-0.7c-0.1-0.2-0.2-0.3-0.4-0.4
		c-0.2-0.1-0.4-0.2-0.6-0.2s-0.4,0-0.6,0c-0.5,0-1,0.1-1.4,0.3c-0.4,0.2-0.6,0.6-0.6,1.2h-1.3c0-0.5,0.1-0.9,0.3-1.2
		c0.2-0.3,0.4-0.6,0.7-0.8s0.6-0.4,1-0.4c0.4-0.1,0.8-0.1,1.2-0.1s0.7,0,1,0.1c0.3,0,0.7,0.2,0.9,0.3c0.3,0.2,0.5,0.4,0.7,0.7
		c0.2,0.3,0.3,0.6,0.3,1.1v4c0,0.3,0,0.5,0.1,0.7c0,0.1,0.2,0.2,0.4,0.2c0.1,0,0.2,0,0.4-0.1v0.9H-153z M-155,249.1
		c-0.2,0.1-0.4,0.2-0.6,0.3c-0.3,0.1-0.5,0.1-0.8,0.1c-0.3,0-0.6,0.1-0.9,0.1s-0.6,0.1-0.8,0.2c-0.2,0.1-0.4,0.2-0.6,0.4
		c-0.1,0.2-0.2,0.4-0.2,0.8c0,0.2,0,0.4,0.1,0.5c0.1,0.1,0.2,0.3,0.3,0.4c0.1,0.1,0.3,0.2,0.5,0.2s0.4,0.1,0.6,0.1
		c0.4,0,0.8-0.1,1.1-0.2s0.5-0.3,0.7-0.4c0.2-0.2,0.3-0.4,0.4-0.6c0.1-0.2,0.1-0.4,0.1-0.6v-1.3H-155z M-146.1,253.1V252l0,0
		c-0.2,0.4-0.5,0.7-1,0.9c-0.5,0.2-0.9,0.3-1.5,0.3c-0.6,0-1.1-0.1-1.6-0.3c-0.4-0.2-0.8-0.5-1.1-0.9s-0.5-0.8-0.7-1.3
		s-0.2-1-0.2-1.6c0-0.6,0.1-1.1,0.2-1.6s0.4-0.9,0.7-1.3c0.3-0.4,0.7-0.7,1.1-0.9c0.4-0.2,1-0.3,1.6-0.3c0.2,0,0.4,0,0.6,0.1
		c0.2,0.1,0.5,0.1,0.7,0.2c0.2,0.1,0.4,0.2,0.7,0.4c0.2,0.2,0.4,0.3,0.5,0.6l0,0v-4h1.3v10.8H-146.1L-146.1,253.1z M-150.7,250.4
		c0.1,0.3,0.2,0.7,0.4,0.9c0.2,0.3,0.4,0.5,0.8,0.6c0.3,0.2,0.7,0.2,1.1,0.2c0.4,0,0.8-0.1,1.1-0.3s0.5-0.4,0.7-0.7
		c0.2-0.3,0.3-0.6,0.4-0.9c0.1-0.4,0.1-0.7,0.1-1.1c0-0.4,0-0.8-0.1-1.1c-0.1-0.4-0.2-0.7-0.4-0.9c-0.2-0.3-0.4-0.5-0.8-0.7
		c-0.3-0.2-0.7-0.2-1.1-0.2s-0.8,0.1-1.1,0.3c-0.3,0.2-0.5,0.4-0.7,0.7s-0.3,0.6-0.4,1c-0.1,0.4-0.1,0.7-0.1,1.1
		C-150.8,249.7-150.8,250-150.7,250.4z M-135.9,253.1c-0.2,0.1-0.5,0.2-0.9,0.2c-0.3,0-0.6-0.1-0.8-0.3c-0.2-0.2-0.3-0.5-0.3-0.9
		c-0.4,0.4-0.8,0.7-1.2,0.9c-0.4,0.2-1,0.3-1.5,0.3c-0.4,0-0.7,0-1-0.1c-0.3-0.1-0.6-0.2-0.8-0.4c-0.2-0.2-0.4-0.4-0.6-0.7
		c-0.1-0.3-0.2-0.6-0.2-1c0-0.4,0.1-0.8,0.2-1.1c0.2-0.3,0.3-0.5,0.6-0.7c0.2-0.2,0.5-0.3,0.8-0.4c0.3-0.1,0.6-0.2,1-0.2
		c0.4-0.1,0.7-0.1,1-0.2c0.3,0,0.6-0.1,0.8-0.2c0.2-0.1,0.4-0.2,0.6-0.3c0.1-0.1,0.2-0.3,0.2-0.5c0-0.3-0.1-0.5-0.2-0.7
		c-0.1-0.2-0.2-0.3-0.4-0.4c-0.2-0.1-0.4-0.2-0.6-0.2s-0.4,0-0.6,0c-0.5,0-1,0.1-1.4,0.3c-0.4,0.2-0.6,0.6-0.6,1.2h-1.3
		c0-0.5,0.1-0.9,0.3-1.2s0.4-0.6,0.7-0.8c0.3-0.2,0.6-0.4,1-0.4c0.4-0.1,0.8-0.1,1.2-0.1c0.4,0,0.7,0,1,0.1c0.3,0,0.7,0.2,0.9,0.3
		c0.3,0.2,0.5,0.4,0.7,0.7s0.3,0.6,0.3,1.1v4c0,0.3,0,0.5,0.1,0.7c0,0.1,0.2,0.2,0.4,0.2c0.1,0,0.2,0,0.4-0.1v0.9H-135.9z
		 M-138,249.1c-0.2,0.1-0.4,0.2-0.6,0.3c-0.3,0.1-0.5,0.1-0.8,0.1c-0.3,0-0.6,0.1-0.9,0.1s-0.6,0.1-0.8,0.2
		c-0.2,0.1-0.4,0.2-0.6,0.4c-0.1,0.2-0.2,0.4-0.2,0.8c0,0.2,0,0.4,0.1,0.5c0.1,0.1,0.2,0.3,0.3,0.4c0.1,0.1,0.3,0.2,0.5,0.2
		s0.4,0.1,0.6,0.1c0.4,0,0.8-0.1,1.1-0.2s0.5-0.3,0.7-0.4c0.2-0.2,0.3-0.4,0.4-0.6c0.1-0.2,0.1-0.4,0.1-0.6v-1.3H-138z
		 M-130.1,246.7c-0.3-0.3-0.8-0.4-1.3-0.4s-0.9,0.1-1.2,0.3c-0.3,0.2-0.6,0.4-0.7,0.7c-0.2,0.3-0.3,0.6-0.4,1
		c-0.1,0.4-0.1,0.7-0.1,1.1c0,0.4,0,0.7,0.1,1.1c0.1,0.3,0.2,0.6,0.4,0.9c0.2,0.3,0.4,0.5,0.7,0.6c0.3,0.2,0.6,0.2,1,0.2
		c0.6,0,1.1-0.2,1.5-0.5c0.4-0.3,0.6-0.8,0.7-1.4h1.3c-0.1,1-0.5,1.7-1.1,2.2c-0.6,0.5-1.4,0.8-2.4,0.8c-0.6,0-1.1-0.1-1.6-0.3
		s-0.8-0.5-1.1-0.8c-0.3-0.4-0.5-0.8-0.7-1.3s-0.2-1-0.2-1.6c0-0.6,0.1-1.1,0.2-1.6c0.2-0.5,0.4-1,0.7-1.3c0.3-0.4,0.7-0.7,1.2-0.9
		s1-0.3,1.6-0.3c0.4,0,0.9,0.1,1.2,0.2c0.4,0.1,0.7,0.3,1,0.5c0.3,0.2,0.5,0.5,0.7,0.8c0.2,0.3,0.3,0.7,0.4,1.2h-1.3
		C-129.5,247.4-129.8,247-130.1,246.7z M-126.6,243.9v-1.6h1.3v1.6H-126.6z M-125.3,245.3v7.8h-1.3v-7.8H-125.3z M-123.5,247.6
		c0.2-0.5,0.4-0.9,0.7-1.3c0.3-0.4,0.7-0.7,1.2-0.9c0.5-0.2,1-0.3,1.6-0.3s1.2,0.1,1.6,0.3c0.5,0.2,0.9,0.5,1.2,0.9
		c0.3,0.4,0.6,0.8,0.7,1.3c0.2,0.5,0.2,1,0.2,1.6c0,0.6-0.1,1.1-0.2,1.6c-0.2,0.5-0.4,0.9-0.7,1.3c-0.3,0.4-0.7,0.7-1.2,0.9
		s-1,0.3-1.6,0.3s-1.2-0.1-1.6-0.3c-0.4-0.2-0.9-0.5-1.2-0.9c-0.3-0.4-0.6-0.8-0.7-1.3c-0.2-0.5-0.2-1-0.2-1.6
		C-123.7,248.7-123.6,248.1-123.5,247.6z M-122.2,250.5c0.1,0.4,0.3,0.7,0.5,0.9c0.2,0.2,0.5,0.4,0.8,0.6c0.3,0.1,0.6,0.2,0.9,0.2
		s0.6-0.1,0.9-0.2c0.3-0.1,0.6-0.3,0.8-0.6c0.2-0.2,0.4-0.6,0.5-0.9c0.1-0.3,0.2-0.8,0.2-1.3s-0.1-0.9-0.2-1.3
		c-0.1-0.4-0.3-0.7-0.5-0.9c-0.2-0.3-0.5-0.4-0.8-0.6c-0.3-0.2-0.6-0.2-0.9-0.2s-0.6,0.1-0.9,0.2c-0.3,0.1-0.6,0.3-0.8,0.6
		s-0.4,0.6-0.5,0.9c-0.1,0.3-0.2,0.8-0.2,1.3S-122.3,250.1-122.2,250.5z M-119.5,241.5l-1.4,2.4h1l2.1-2.4H-119.5z M-113.4,245.3
		v1.2l0,0c0.5-0.9,1.4-1.4,2.5-1.4c0.5,0,0.9,0.1,1.3,0.2c0.3,0.1,0.6,0.3,0.8,0.6c0.2,0.3,0.4,0.5,0.4,0.9c0.1,0.3,0.1,0.7,0.1,1.2
		v5.1h-1.3v-5.3c0-0.5-0.1-0.9-0.4-1.1c-0.3-0.3-0.7-0.4-1.2-0.4c-0.4,0-0.7,0.1-1,0.2s-0.5,0.3-0.7,0.5c-0.2,0.2-0.3,0.5-0.4,0.8
		c-0.1,0.3-0.1,0.6-0.1,1v4.4h-1.3v-7.8L-113.4,245.3L-113.4,245.3z"/>
</g>
<g transform="translate(171 98)">
	<path class="st0" d="M-254.8,252.3v-6.8h-2.7v-1.6c0.4,0,0.7,0,1.1-0.1c0.3-0.1,0.7-0.2,0.9-0.3c0.3-0.2,0.5-0.4,0.7-0.7
		s0.3-0.6,0.4-1h1.7v10.6L-254.8,252.3L-254.8,252.3z M-249.3,244.4c0.2-0.7,0.5-1.3,0.8-1.7c0.4-0.4,0.8-0.7,1.2-0.9
		c0.5-0.2,1-0.3,1.5-0.3s1,0.1,1.5,0.3s0.9,0.5,1.2,0.9c0.4,0.4,0.6,1,0.8,1.7c0.2,0.7,0.3,1.6,0.3,2.6c0,1.1-0.1,1.9-0.3,2.6
		c-0.2,0.7-0.5,1.3-0.8,1.7c-0.4,0.4-0.8,0.7-1.2,0.9c-0.5,0.2-1,0.3-1.5,0.3s-1-0.1-1.5-0.3s-0.9-0.5-1.2-0.9
		c-0.4-0.4-0.6-1-0.8-1.7c-0.2-0.7-0.3-1.6-0.3-2.6C-249.6,245.9-249.5,245.1-249.3,244.4z M-247.4,248c0,0.4,0.1,0.8,0.2,1.2
		c0.1,0.4,0.3,0.7,0.5,1s0.6,0.4,1,0.4c0.4,0,0.8-0.1,1-0.4s0.4-0.6,0.5-1c0.1-0.4,0.2-0.8,0.2-1.2s0-0.8,0-1.1c0-0.2,0-0.4,0-0.7
		s0-0.5-0.1-0.8c0-0.3-0.1-0.5-0.2-0.8c-0.1-0.3-0.2-0.5-0.3-0.7c-0.1-0.2-0.3-0.4-0.5-0.5c-0.2-0.1-0.4-0.2-0.7-0.2
		s-0.5,0.1-0.7,0.2c-0.2,0.1-0.4,0.3-0.5,0.5c-0.1,0.2-0.2,0.4-0.3,0.7c-0.1,0.3-0.1,0.5-0.2,0.8c0,0.3,0,0.5-0.1,0.8
		c0,0.3,0,0.5,0,0.7C-247.5,247.2-247.5,247.6-247.4,248z"/>
	<polygon class="st0" points="-235.5,241.2 -239.7,252.5 -241.4,252.5 -237.2,241.2 	"/>
	<path class="st0" d="M-234.7,244.4c0.2-0.7,0.5-1.3,0.8-1.7c0.4-0.4,0.8-0.7,1.2-0.9c0.5-0.2,1-0.3,1.5-0.3s1,0.1,1.5,0.3
		s0.9,0.5,1.2,0.9c0.4,0.4,0.6,1,0.8,1.7c0.2,0.7,0.3,1.6,0.3,2.6c0,1.1-0.1,1.9-0.3,2.6c-0.2,0.7-0.5,1.3-0.8,1.7
		c-0.4,0.4-0.8,0.7-1.2,0.9c-0.5,0.2-1,0.3-1.5,0.3s-1-0.1-1.5-0.3s-0.9-0.5-1.2-0.9c-0.4-0.4-0.6-1-0.8-1.7
		c-0.2-0.7-0.3-1.6-0.3-2.6C-235,245.9-234.9,245.1-234.7,244.4z M-232.9,248c0,0.4,0.1,0.8,0.2,1.2c0.1,0.4,0.3,0.7,0.5,1
		s0.6,0.4,1,0.4c0.4,0,0.8-0.1,1-0.4s0.4-0.6,0.5-1c0.1-0.4,0.2-0.8,0.2-1.2s0-0.8,0-1.1c0-0.2,0-0.4,0-0.7s0-0.5-0.1-0.8
		c0-0.3-0.1-0.5-0.2-0.8c-0.1-0.3-0.2-0.5-0.3-0.7c-0.1-0.2-0.3-0.4-0.5-0.5c-0.2-0.1-0.4-0.2-0.7-0.2s-0.5,0.1-0.7,0.2
		c-0.2,0.1-0.4,0.3-0.5,0.5c-0.1,0.2-0.2,0.4-0.3,0.7c-0.1,0.3-0.1,0.5-0.2,0.8c0,0.3,0,0.5-0.1,0.8c0,0.3,0,0.5,0,0.7
		C-232.9,247.2-232.9,247.6-232.9,248z M-223.5,243.5l-0.4,2.4l0,0c0.3-0.3,0.6-0.5,0.9-0.6c0.3-0.1,0.7-0.2,1.1-0.2
		c0.5,0,1,0.1,1.4,0.3c0.4,0.2,0.7,0.4,1,0.8c0.3,0.3,0.5,0.7,0.6,1.1c0.1,0.4,0.2,0.9,0.2,1.4s-0.1,1-0.3,1.5s-0.5,0.9-0.9,1.2
		c-0.4,0.3-0.8,0.6-1.2,0.8c-0.5,0.2-1,0.3-1.5,0.3s-1-0.1-1.5-0.2c-0.5-0.1-0.9-0.3-1.2-0.6c-0.4-0.3-0.7-0.6-0.9-1
		c-0.2-0.4-0.3-0.9-0.3-1.5h2.1c0.1,0.5,0.2,0.9,0.5,1.2c0.3,0.3,0.7,0.4,1.2,0.4c0.3,0,0.5-0.1,0.8-0.2c0.2-0.1,0.4-0.3,0.6-0.5
		c0.2-0.2,0.3-0.4,0.4-0.6c0.1-0.2,0.1-0.5,0.1-0.8s0-0.5-0.1-0.8c-0.1-0.3-0.2-0.5-0.4-0.6c-0.2-0.2-0.4-0.3-0.6-0.4
		c-0.2-0.1-0.5-0.2-0.8-0.2c-0.4,0-0.7,0.1-0.9,0.2c-0.2,0.1-0.5,0.3-0.7,0.6h-1.9l1-5.8h5.9v1.8H-223.5L-223.5,243.5z"/>
	<polygon class="st0" points="-212.2,241.2 -216.4,252.5 -218.1,252.5 -213.9,241.2 	"/>
	<path class="st0" d="M-211.3,244.1c0.2-0.5,0.4-1,0.7-1.4c0.3-0.4,0.7-0.7,1.2-0.9s1-0.3,1.7-0.3c0.5,0,0.9,0.1,1.4,0.2
		c0.4,0.2,0.8,0.4,1.2,0.6c0.3,0.3,0.6,0.6,0.8,1c0.2,0.4,0.3,0.9,0.3,1.4s-0.1,1-0.3,1.4c-0.2,0.4-0.4,0.7-0.7,1
		c-0.3,0.3-0.6,0.6-1,0.8c-0.4,0.2-0.7,0.5-1.1,0.7c-0.4,0.2-0.7,0.5-1.1,0.8c-0.3,0.3-0.6,0.6-0.9,1h5v1.8h-7.8
		c0-0.6,0.1-1.1,0.3-1.6c0.2-0.5,0.4-0.9,0.7-1.2c0.3-0.4,0.7-0.7,1.1-1c0.4-0.3,0.8-0.6,1.3-0.9c0.2-0.2,0.5-0.3,0.7-0.5
		c0.3-0.2,0.5-0.3,0.7-0.6c0.2-0.2,0.4-0.4,0.5-0.7c0.1-0.3,0.2-0.5,0.2-0.9c0-0.5-0.1-0.9-0.4-1.2c-0.3-0.3-0.7-0.4-1.1-0.4
		c-0.3,0-0.6,0.1-0.8,0.2c-0.2,0.1-0.4,0.3-0.5,0.6c-0.1,0.2-0.2,0.5-0.3,0.8s-0.1,0.6-0.1,0.9h-2.1
		C-211.5,245.2-211.5,244.6-211.3,244.1z M-202.8,244.4c0.2-0.7,0.5-1.3,0.8-1.7c0.4-0.4,0.8-0.7,1.2-0.9c0.5-0.2,1-0.3,1.5-0.3
		s1,0.1,1.5,0.3s0.9,0.5,1.2,0.9c0.4,0.4,0.6,1,0.8,1.7c0.2,0.7,0.3,1.6,0.3,2.6c0,1.1-0.1,1.9-0.3,2.6c-0.2,0.7-0.5,1.3-0.8,1.7
		c-0.4,0.4-0.8,0.7-1.2,0.9c-0.5,0.2-1,0.3-1.5,0.3s-1-0.1-1.5-0.3s-0.9-0.5-1.2-0.9c-0.4-0.4-0.6-1-0.8-1.7
		c-0.2-0.7-0.3-1.6-0.3-2.6C-203.1,245.9-203,245.1-202.8,244.4z M-200.9,248c0,0.4,0.1,0.8,0.2,1.2c0.1,0.4,0.3,0.7,0.5,1
		s0.6,0.4,1,0.4c0.4,0,0.8-0.1,1-0.4s0.4-0.6,0.5-1c0.1-0.4,0.2-0.8,0.2-1.2s0-0.8,0-1.1c0-0.2,0-0.4,0-0.7s0-0.5-0.1-0.8
		c0-0.3-0.1-0.5-0.2-0.8c-0.1-0.3-0.2-0.5-0.3-0.7c-0.1-0.2-0.3-0.4-0.5-0.5c-0.2-0.1-0.4-0.2-0.7-0.2s-0.5,0.1-0.7,0.2
		c-0.2,0.1-0.4,0.3-0.5,0.5c-0.1,0.2-0.2,0.4-0.3,0.7c-0.1,0.3-0.1,0.5-0.2,0.8c0,0.3,0,0.5-0.1,0.8c0,0.3,0,0.5,0,0.7
		C-200.9,247.2-200.9,247.6-200.9,248z M-189.3,243.5c-0.3-0.3-0.6-0.4-0.9-0.4c-0.4,0-0.7,0.1-1,0.3c-0.3,0.2-0.5,0.5-0.6,0.8
		c-0.2,0.3-0.3,0.7-0.3,1c-0.1,0.4-0.1,0.7-0.1,1l0,0c0.3-0.4,0.6-0.7,1-0.9c0.4-0.2,0.8-0.3,1.4-0.3c0.5,0,0.9,0.1,1.3,0.3
		s0.8,0.5,1.1,0.8c0.3,0.3,0.5,0.7,0.6,1.1c0.1,0.4,0.2,0.8,0.2,1.3s-0.1,1-0.3,1.5c-0.2,0.5-0.4,0.9-0.8,1.2
		c-0.3,0.3-0.7,0.6-1.2,0.8s-1,0.3-1.5,0.3c-0.8,0-1.5-0.2-2-0.5s-0.9-0.7-1.3-1.2c-0.3-0.5-0.5-1.1-0.6-1.7c-0.1-0.6-0.2-1.3-0.2-2
		c0-0.7,0.1-1.3,0.2-2c0.2-0.7,0.4-1.2,0.7-1.8c0.3-0.5,0.8-1,1.3-1.3s1.2-0.5,1.9-0.5c0.5,0,0.9,0.1,1.3,0.2c0.4,0.1,0.7,0.3,1,0.6
		c0.3,0.2,0.5,0.5,0.7,0.9c0.2,0.4,0.3,0.8,0.4,1.3h-2C-188.9,244.1-189.1,243.8-189.3,243.5z M-191.1,247c-0.2,0.1-0.4,0.2-0.5,0.4
		c-0.1,0.2-0.2,0.4-0.3,0.6c-0.1,0.2-0.1,0.5-0.1,0.7s0,0.5,0.1,0.7c0.1,0.2,0.2,0.4,0.3,0.6c0.1,0.2,0.3,0.3,0.5,0.4
		c0.2,0.1,0.5,0.2,0.7,0.2c0.3,0,0.5-0.1,0.7-0.2c0.2-0.1,0.4-0.3,0.5-0.4c0.1-0.2,0.2-0.4,0.3-0.6c0.1-0.2,0.1-0.5,0.1-0.7
		c0-0.3,0-0.5-0.1-0.7c-0.1-0.2-0.2-0.4-0.3-0.6c-0.1-0.2-0.3-0.3-0.5-0.5c-0.2-0.1-0.4-0.2-0.7-0.2
		C-190.7,246.8-190.9,246.8-191.1,247z M-185,243.1c0.2-0.4,0.5-0.7,0.8-0.9s0.7-0.4,1.1-0.5c0.4-0.1,0.9-0.2,1.3-0.2
		c0.7,0,1.2,0.1,1.7,0.3s0.8,0.4,1.1,0.7s0.5,0.6,0.6,0.9c0.1,0.3,0.2,0.6,0.2,0.9c0,0.5-0.1,1-0.4,1.4c-0.3,0.4-0.6,0.7-1.2,0.8
		l0,0c0.6,0.1,1.1,0.4,1.5,0.9c0.3,0.5,0.5,1,0.5,1.7c0,0.6-0.1,1.1-0.3,1.5c-0.2,0.4-0.5,0.8-0.9,1c-0.4,0.3-0.8,0.5-1.3,0.6
		c-0.5,0.1-1,0.2-1.4,0.2c-0.5,0-1-0.1-1.5-0.2c-0.5-0.1-0.9-0.3-1.3-0.6c-0.4-0.3-0.7-0.6-0.9-1c-0.2-0.4-0.3-0.9-0.3-1.5
		c0-0.7,0.2-1.2,0.5-1.7s0.8-0.8,1.5-0.9l0,0c-0.5-0.1-0.9-0.4-1.2-0.8c-0.3-0.4-0.4-0.9-0.4-1.4
		C-185.4,243.9-185.3,243.5-185,243.1z M-183.5,249.8c0.1,0.2,0.2,0.4,0.4,0.6c0.2,0.2,0.4,0.3,0.6,0.4c0.2,0.1,0.5,0.1,0.7,0.1
		c0.3,0,0.5,0,0.7-0.1c0.2-0.1,0.4-0.2,0.6-0.4c0.2-0.2,0.3-0.3,0.4-0.6c0.1-0.2,0.1-0.5,0.1-0.7c0-0.3,0-0.5-0.1-0.7
		c-0.1-0.2-0.2-0.4-0.4-0.5c-0.2-0.2-0.4-0.3-0.6-0.3c-0.2-0.1-0.5-0.1-0.7-0.1c-0.5,0-1,0.1-1.3,0.4c-0.4,0.3-0.5,0.7-0.5,1.2
		C-183.7,249.3-183.6,249.6-183.5,249.8z M-182.9,245.6c0.3,0.2,0.7,0.4,1.1,0.4c0.5,0,0.8-0.1,1.1-0.4c0.3-0.2,0.5-0.6,0.5-1
		c0-0.1,0-0.3-0.1-0.5c0-0.2-0.1-0.3-0.2-0.5c-0.1-0.2-0.3-0.3-0.5-0.4c-0.2-0.1-0.5-0.2-0.8-0.2c-0.2,0-0.4,0-0.6,0.1
		c-0.2,0.1-0.4,0.2-0.5,0.3c-0.2,0.1-0.3,0.3-0.4,0.5c-0.1,0.2-0.1,0.4-0.1,0.6C-183.4,245-183.3,245.4-182.9,245.6z"/>
	<polygon class="st0" points="-171.9,242.7 -171.5,243.9 -173.3,244.5 -172.2,246 -173.2,246.7 -174.3,245.1 -175.4,246.7 
		-176.4,246 -175.3,244.5 -177,243.9 -176.6,242.7 -174.9,243.4 -174.9,241.5 -173.7,241.5 -173.7,243.4 	"/>
</g>
</svg>
