<svg xmlns="http://www.w3.org/2000/svg" width="48" height="48" viewBox="0 0 48 48">
  <path fill="#475993" fill-rule="evenodd" d="M41.5317392,0 L6.4681434,0 C2.89595753,0 0,2.89584011 0,6.4681434 L0,41.531974 C0,45.1042773 2.89584011,48.0003523 6.4681434,48.0003523 L23.7613415,48.0003523 L23.7908142,30.8474724 L19.3345646,30.8474724 C18.7554436,30.8474724 18.2854068,30.3791969 18.2831758,29.8000758 L18.2618051,24.2710667 C18.2595741,23.6887753 18.73102,23.2155681 19.3133114,23.2155681 L23.761459,23.2155681 L23.761459,17.8731411 C23.761459,11.673305 27.5479384,8.29744731 33.0785914,8.29744731 L37.6169184,8.29744731 C38.197566,8.29744731 38.6684247,8.76818866 38.6684247,9.34895361 L38.6684247,14.0110425 C38.6684247,14.5915726 38.1979182,15.0621965 37.6175055,15.0625488 L34.8323936,15.0638404 C31.8246511,15.0638404 31.2422423,16.4930905 31.2422423,18.5905843 L31.2422423,23.2156855 L37.851291,23.2156855 C38.4810206,23.2156855 38.9696099,23.7655687 38.8953998,24.3909537 L38.2400724,29.9199628 C38.1773695,30.4490625 37.7287034,30.8477072 37.1959636,30.8477072 L31.271715,30.8477072 L31.2422423,48.0003523 L41.531974,48.0003523 C45.1041599,48.0003523 48,45.1045122 48,41.5323263 L48,6.4681434 C48,2.89584011 45.1040425,0 41.5317392,0"/>
</svg>
