<svg xmlns="http://www.w3.org/2000/svg" width="48" height="48" viewBox="0 0 48 48">
  <defs>
    <linearGradient id="instagram-a" x1="3.148%" x2="96.852%" y1="96.666%" y2="3.326%">
      <stop offset="0%" stop-color="#FD5"/>
      <stop offset="50%" stop-color="#FF543E"/>
      <stop offset="100%" stop-color="#C837AB"/>
    </linearGradient>
  </defs>
  <g fill="none">
    <path fill="url(#instagram-a)" d="M42.84375,47.9251462 L5.15625,47.9251462 C2.30625,47.9251462 0,45.6233918 0,42.7789474 L0,5.16491228 C0,2.32046784 2.30625,0.0187134503 5.15625,0.0187134503 L42.84375,0.0187134503 C45.69375,0.0187134503 48,2.32046784 48,5.16491228 L48,42.7789474 C48,45.6140351 45.69375,47.9251462 42.84375,47.9251462 Z"/>
    <path fill="#FFF" d="M24,6.3625731 C16.734375,6.3625731 9.84375,5.71695906 7.209375,12.4631579 C6.121875,15.251462 6.28125,18.8725146 6.28125,24.0467836 C6.28125,28.594152 6.13125,32.8701754 7.209375,35.6304094 C9.834375,42.3766082 16.790625,41.7309942 24,41.7309942 C30.95625,41.7309942 38.128125,42.451462 40.790625,35.6304094 C41.878125,32.8140351 41.71875,29.2491228 41.71875,24.0467836 C41.71875,17.1321637 42.103125,12.6783626 38.746875,9.32865497 C35.334375,5.93216374 30.740625,6.3625731 24,6.3625731 L24,6.3625731 Z M22.40625,9.54385965 C37.55625,9.51578947 39.478125,7.84093567 38.41875,31.1859649 C38.04375,39.4479532 31.74375,38.5403509 24,38.5403509 C9.88125,38.5403509 9.47806755,38.1380117 9.47806755,24.0374269 C9.46875,9.77777778 10.59375,9.55321637 22.40625,9.54385965 L22.40625,9.54385965 Z M33.459375,12.4818713 C32.2875,12.4818713 31.33125,13.4362573 31.33125,14.605848 C31.33125,15.7754386 32.2875,16.7298246 33.459375,16.7298246 C34.63125,16.7298246 35.5875,15.7754386 35.5875,14.605848 C35.578125,13.4362573 34.63125,12.4818713 33.459375,12.4818713 Z M24,14.9614035 C18.975,14.9614035 14.896875,19.0315789 14.896875,24.0467836 C14.896875,29.0619883 18.975,33.1321637 24,33.1321637 C29.025,33.1321637 33.09375,29.0619883 33.09375,24.0467836 C33.09375,19.0315789 29.025,14.9614035 24,14.9614035 L24,14.9614035 Z M24,18.1520468 C31.809375,18.1520468 31.81875,29.9415205 24,29.9415205 C16.190625,29.9415205 16.171875,18.1520468 24,18.1520468 Z"/>
  </g>
</svg>
