<svg xmlns="http://www.w3.org/2000/svg" width="195" height="38" viewBox="0 0 195 38">
  <g fill="none">
    <path fill="#000" d="M32.4117647,5.58823529 C28.8459384,2.02240896 24.0560224,0 19,0 C13.9439776,0 9.15406162,1.96918768 5.58823529,5.58823529 C2.02240896,9.15406162 0,13.9439776 0,19 C0,24.0560224 1.96918768,28.8459384 5.58823529,32.4117647 C9.15406162,35.977591 13.9439776,38 19,38 C24.0560224,38 28.8459384,36.0308123 32.4117647,32.4117647 C35.977591,28.8459384 38,24.0560224 38,19 C38,13.9439776 36.0308123,9.15406162 32.4117647,5.58823529 Z M33.210084,19 C33.210084,26.8235294 26.8235294,33.210084 19,33.210084 C11.1764706,33.210084 4.78991597,26.8235294 4.78991597,19 C4.78991597,11.1764706 11.1764706,4.78991597 19,4.78991597 C26.8235294,4.78991597 33.210084,11.1764706 33.210084,19 Z"/>
    <path fill="#000" d="M29.1739284,19.179878 C26.4087342,18.5579268 22.0783358,17.5213415 19.0522743,19.0243902 C20.0957438,17.2621951 20.7218255,15.0853659 19.678356,12.7012195 L17.1740292,7 L16.7566414,8.81402439 C16.4436006,10.0579268 15.9218658,11.1463415 15.4001311,12.2347561 C14.3566616,14.3597561 13.3653655,16.3292683 14.513182,18.9207317 C14.8783963,19.8018293 15.5566515,20.7347561 15.8696923,21.2012195 L16.1305597,21.5640244 C15.7131719,21.9268293 15.4001311,22.2378049 15.4001311,22.2378049 L14.5653555,22.9634146 L15.6609984,23.3262195 C17.1218557,23.7926829 18.4783661,24 19.7827029,24 C23.852234,24 26.8782955,22.0823171 28.5478467,20.9939024 C28.913061,20.7347561 29.2261019,20.5792683 29.4869692,20.4237805 L31,19.6463415 L29.1739284,19.179878 Z"/>
    <path fill="#FFF" d="M17 22C17 22 17.4242424 21.6 17.9545455 21.0285714 18.0075758 20.9714286 18.1136364 20.9142857 18.1666667 20.9142857 20.2348485 19.8285714 21.7727273 20.4571429 24 20.7428571 23.7878788 20.7428571 23.6287879 20.6285714 23.4166667 20.5714286 23.2045455 20.5142857 23.0454545 20.4571429 22.8333333 20.4 22.4621212 20.2857143 22.1439394 20.2285714 21.7727273 20.1714286 21.0833333 20.0571429 20.4469697 20 19.7575758 20 19.3333333 20 18.8560606 20.1142857 18.4318182 20.3428571 18.0606061 20.5142857 17.7954545 20.8571429 17.530303 21.1428571 17.4242424 21.2571429 17.3181818 21.3714286 17.2121212 21.4857143 17.2651515 21.7142857 17.1590909 21.8857143 17 22zM17 20.9006918C17.0487249 20.7903984 17.1461748 20.6801051 17.1948997 20.5698118 18.1693982 18.6948257 17.7795988 17.1507194 17.682149 15 18.0719484 17.2058661 18.1206733 18.639679 17.7308739 20.6801051 17.7795988 20.6249585 17.5359742 21.2315717 17 20.9006918z"/>
    <g fill="#000" transform="translate(48 6)">
      <path d="M.158633094.416666667L13.4838129.416666667C19.8820144.416666667 21.2568345 3.95833333 21.2568345 6.40625 21.2568345 8.80208333 20.0406475 10.15625 18.2428058 11.09375 20.4107914 11.8229167 22.4730216 13.5416667 22.4730216 17.0833333 22.4730216 21.875 18.2428058 24.375 13.9597122 24.375L.158633094 24.375.158633094.416666667zM7.66726619 9.79166667L11.6330935 9.79166667C13.2194245 9.79166667 14.171223 9.375 14.171223 7.8125 14.171223 6.61458333 13.1665468 6.14583333 11.6330935 6.14583333L7.66726619 6.14583333 7.66726619 9.79166667zM7.66726619 18.6979167L12.0561151 18.6979167C13.642446 18.6979167 14.9643885 18.28125 14.9643885 16.40625 14.9643885 15 14.1183453 14.21875 12.3205036 14.21875L7.61438849 14.21875 7.61438849 18.6979167 7.66726619 18.6979167zM31.5679856 5.10416667L24.7996403 5.10416667 24.7996403.416666667 31.5679856.416666667 31.5679856 5.10416667zM24.7996403 6.97916667L31.5679856 6.97916667 31.5679856 24.4270833 24.7996403 24.4270833 24.7996403 6.97916667zM43.6241007 24.84375C36.9615108 24.84375 34.0003597 20.5208333 34.0003597 15.6770833 34.0003597 10.8333333 37.0143885 6.5625 43.6241007 6.5625 50.2338129 6.5625 53.2478417 10.8854167 53.2478417 15.6770833 53.2478417 20.5208333 50.2866906 24.84375 43.6241007 24.84375zM43.6241007 11.40625C41.0859712 11.40625 40.7158273 13.8541667 40.7158273 15.7291667 40.7158273 17.5520833 41.0330935 20.0520833 43.6241007 20.0520833 46.2151079 20.0520833 46.5323741 17.5520833 46.5323741 15.7291667 46.5323741 13.8541667 46.1622302 11.40625 43.6241007 11.40625z"/>
      <polygon points="55.627 .417 74.452 .417 74.452 6.563 63.136 6.563 63.136 9.531 72.865 9.531 72.865 15.26 63.136 15.26 63.136 24.375 55.627 24.375"/>
      <path d="M93.5935252 20.5208333C93.5935252 21.8229167 93.6464029 23.3333333 94.3866906 24.4270833L87.5125899 24.4270833C87.3539568 23.9583333 87.2482014 23.2291667 87.2482014 22.7604167L87.1953237 22.7604167C85.7676259 24.375 83.7053957 24.84375 81.4845324 24.84375 78.1003597 24.84375 75.244964 23.2291667 75.244964 19.5833333 75.244964 14.0625 81.8017986 14.2708333 85.2388489 13.6458333 86.1377698 13.4895833 87.0895683 13.2291667 87.0895683 12.0833333 87.0895683 10.8854167 85.9791367 10.46875 84.868705 10.46875 82.8064748 10.46875 82.3834532 11.5104167 82.3305755 12.2395833L76.0381295 12.2395833C76.1438849 9.79166667 77.3600719 8.33333333 79.105036 7.55208333 80.7971223 6.77083333 83.0708633 6.5625 85.1330935 6.5625 93.5935252 6.5625 93.5406475 10 93.5406475 13.3854167L93.5406475 20.5208333 93.5935252 20.5208333zM87.0895683 16.6145833C86.2964029 17.03125 85.3446043 17.2395833 84.4456835 17.4479167 82.9651079 17.7604167 82.1719424 18.1770833 82.1719424 19.3229167 82.1719424 20.1041667 83.0708633 20.9375 84.2870504 20.9375 85.8205036 20.9375 87.0366906 20.0520833 87.142446 18.2291667L87.142446 16.6145833 87.0895683 16.6145833zM107.923381 13.59375C107.870504 12.8645833 107.606115 12.2916667 107.183094 11.9270833 106.760072 11.5625 106.178417 11.3541667 105.491007 11.3541667 102.9 11.3541667 102.529856 13.59375 102.529856 15.6770833 102.529856 17.7604167 102.9 20 105.491007 20 106.971583 20 107.976259 18.8020833 108.134892 17.4479167L114.585971 17.4479167C114.268705 19.7916667 113.158273 21.6666667 111.519065 22.9166667 109.932734 24.1666667 107.764748 24.84375 105.385252 24.84375 100.044604 24.84375 95.8143885 21.1979167 95.8143885 15.7291667 95.8143885 10.2604167 100.097482 6.5625 105.385252 6.5625 110.038489 6.5625 113.951439 8.80208333 114.37446 13.59375L107.923381 13.59375 107.923381 13.59375zM124.738489 6.97916667L128.334173 6.97916667 128.334173 11.09375 124.738489 11.09375 124.738489 17.1875C124.738489 18.8020833 125.108633 19.4791667 126.800719 19.4791667 127.329496 19.4791667 127.805396 19.4270833 128.334173 19.375L128.334173 24.4270833C126.959353 24.4270833 125.425899 24.6354167 123.998201 24.6354167 121.142806 24.6354167 117.970144 24.21875 117.970144 19.4270833L117.970144 11.09375 114.956115 11.09375 114.956115 6.97916667 117.970144 6.97916667 117.970144 1.66666667 124.738489 1.66666667 124.738489 6.97916667 124.738489 6.97916667zM140.073022 12.0833333C140.020144 11.5104167 139.755755 11.09375 139.279856 10.78125 138.856835 10.46875 138.328058 10.2604167 137.799281 10.2604167 136.847482 10.2604167 135.73705 10.46875 135.73705 11.6145833 135.73705 12.1354167 136.160072 12.34375 136.530216 12.5 137.640647 12.96875 140.231655 13.125 142.452518 13.8541667 144.726259 14.5833333 146.682734 15.8854167 146.682734 18.6979167 146.682734 23.5416667 141.976619 24.84375 137.693525 24.84375 133.516187 24.84375 128.968705 23.1770833 128.86295 18.6979167L135.314029 18.6979167C135.366906 19.3229167 135.631295 19.7916667 136.107194 20.2604167 136.42446 20.5729167 137.111871 20.78125 137.905036 20.78125 138.803957 20.78125 140.178777 20.46875 140.178777 19.4270833 140.178777 18.3854167 139.597122 18.125 136.477338 17.6041667 131.348201 16.71875 129.233094 15.1041667 129.233094 12.1354167 129.233094 7.76041667 134.044964 6.61458333 137.58777 6.61458333 141.394964 6.61458333 145.995324 7.65625 146.153957 12.1354167L140.073022 12.1354167 140.073022 12.0833333z"/>
    </g>
  </g>
</svg>
