<svg xmlns="http://www.w3.org/2000/svg" xmlns:xlink="http://www.w3.org/1999/xlink" width="48" height="48" viewBox="0 0 48 48">
  <defs>
    <path id="twitter-a" d="M5.15821875,0.0737309942 C2.3094375,0.0737309942 0,2.3785731 0,5.22189474 L0,5.22189474 L0,42.758269 C0,45.6014971 2.3094375,47.9064327 5.15821875,47.9064327 L5.15821875,47.9064327 L42.7679063,47.9064327 C45.6167813,47.9064327 47.926125,45.6014971 47.926125,42.758269 L47.926125,42.758269 L47.926125,5.22189474 C47.926125,2.3785731 45.6167813,0.0737309942 42.7679063,0.0737309942 L42.7679063,0.0737309942 L5.15821875,0.0737309942 Z"/>
    <linearGradient id="twitter-b" x1="0%" x2="100%" y1="50%" y2="50%">
      <stop offset="0%" stop-color="#00C3FF"/>
      <stop offset="100%" stop-color="#00AFED"/>
    </linearGradient>
  </defs>
  <g fill="none" fill-rule="evenodd">
    <g transform="translate(0 .02)">
      <mask id="twitter-c" fill="#fff">
        <use xlink:href="#twitter-a"/>
      </mask>
      <path fill="url(#twitter-b)" d="M5.15821875,0.0737309942 C2.3094375,0.0737309942 0,2.3785731 0,5.22189474 L0,5.22189474 L0,42.758269 C0,45.6014971 2.3094375,47.9064327 5.15821875,47.9064327 L5.15821875,47.9064327 L42.7679063,47.9064327 C45.6167813,47.9064327 47.926125,45.6014971 47.926125,42.758269 L47.926125,42.758269 L47.926125,5.22189474 C47.926125,2.3785731 45.6167813,0.0737309942 42.7679063,0.0737309942 L42.7679063,0.0737309942 L5.15821875,0.0737309942 Z" mask="url(#twitter-c)"/>
    </g>
    <path fill="#FFF" d="M38.8027313,14.7442526 C37.7407313,15.2987322 36.141075,15.5549193 35.610825,15.6287439 C35.6064188,15.6032 35.6020125,15.5786854 35.5976063,15.5541708 C37.4005125,14.4412819 37.9524187,12.3458433 37.9524187,12.3458433 C36.8358562,12.9829427 35.8517625,13.3363462 35.110575,13.532276 C34.6938563,13.6437146 34.3536375,13.7040655 34.1090437,13.7376561 C32.98545,12.5878082 31.4166375,11.8743579 29.6800125,11.8743579 C26.2632938,11.8743579 23.4928875,14.6386152 23.4928875,18.0497965 C23.4928875,18.1726503 23.4961688,18.294662 23.5042313,18.4156444 C23.5207313,18.711317 23.5585125,19.0019368 23.6167313,19.2844164 C21.9628875,19.2599953 15.9932625,18.7537965 11.0465437,13.0187789 C11.0465437,13.0187789 8.2918875,17.8155041 12.92295,21.0922292 C12.92295,21.0922292 11.0465437,21.0337497 10.05045,20.3316211 C10.05045,20.3316211 9.75748125,24.9536561 15.0912938,26.4156444 C15.0912938,26.4156444 13.2159188,26.8842292 12.2773875,26.4744982 C12.2773875,26.4744982 13.2155438,30.4526035 17.9049188,30.7457497 C17.9049188,30.7457497 14.5416375,33.8187789 9.049575,33.3765801 C11.7507,35.0834339 14.9532,36.0714105 18.3867938,36.0714105 C28.0412625,36.0714105 35.8678875,28.2603228 35.8678875,18.6247673 C35.8678875,18.5045333 35.8668563,18.3842058 35.8642313,18.2639719 C35.8668563,18.1926737 35.8678875,18.1218433 35.8678875,18.0497965 C35.8678875,17.999738 35.8668563,17.9496795 35.8661063,17.8996211 C37.6510125,16.7124398 38.8027313,14.7442526 38.8027313,14.7442526"/>
  </g>
</svg>
