<svg xmlns="http://www.w3.org/2000/svg" xmlns:xlink="http://www.w3.org/1999/xlink" width="48" height="48" viewBox="0 0 48 48">
  <defs>
    <path id="youtube-a" d="M5.15821875,0.0737309942 C2.3094375,0.0737309942 0,2.3785731 0,5.22189474 L0,5.22189474 L0,42.758269 C0,45.6014971 2.3094375,47.9064327 5.15821875,47.9064327 L5.15821875,47.9064327 L42.7679063,47.9064327 C45.6167813,47.9064327 47.926125,45.6014971 47.926125,42.758269 L47.926125,42.758269 L47.926125,5.22189474 C47.926125,2.3785731 45.6167813,0.0737309942 42.7679063,0.0737309942 L42.7679063,0.0737309942 L5.15821875,0.0737309942 Z"/>
    <linearGradient id="youtube-b" x1="0%" x2="100%" y1="50%" y2="50%">
      <stop offset="0%" stop-color="#E42D26"/>
      <stop offset="100%" stop-color="#B31117"/>
    </linearGradient>
    <path id="youtube-d" d="M0.00121875,9.19775439 C2.50246875,7.66521637 4.9425,6.16926316 7.45584375,4.62905263 L7.45584375,4.62905263 C4.94765625,3.09061988 2.508,1.5942924 0.00121875,0.0569824561 L0.00121875,0.0569824561 L0.00121875,9.19775439 Z"/>
    <linearGradient id="youtube-e" x1="0%" x2="99.999%" y1="50%" y2="50%">
      <stop offset="0%" stop-color="#E42D26"/>
      <stop offset="100%" stop-color="#B31117"/>
    </linearGradient>
  </defs>
  <g fill="none" fill-rule="evenodd">
    <g transform="translate(0 .02)">
      <mask id="youtube-c" fill="#fff">
        <use xlink:href="#youtube-a"/>
      </mask>
      <path fill="url(#youtube-b)" d="M5.15821875,0.0737309942 C2.3094375,0.0737309942 0,2.3785731 0,5.22189474 L0,5.22189474 L0,42.758269 C0,45.6014971 2.3094375,47.9064327 5.15821875,47.9064327 L5.15821875,47.9064327 L42.7679063,47.9064327 C45.6167813,47.9064327 47.926125,45.6014971 47.926125,42.758269 L47.926125,42.758269 L47.926125,5.22189474 C47.926125,2.3785731 45.6167813,0.0737309942 42.7679063,0.0737309942 L42.7679063,0.0737309942 L5.15821875,0.0737309942 Z" mask="url(#youtube-c)"/>
    </g>
    <path fill="#FFF" d="M24.74865,34.2844538 C20.87415,34.154676 17.875275,34.0808515 14.8799625,33.9383485 C13.9659,33.8944655 13.0251188,33.7705825 12.1594313,33.4898807 C10.5660563,32.9737637 9.65705625,31.8108164 9.4209,30.1312842 C8.9529,26.8034713 8.9928375,23.4642433 9.184275,20.1232374 C9.23705625,19.2059041 9.405525,18.2957754 9.50255625,17.3805942 C9.69118125,15.5995415 11.4559313,14.2925006 13.12515,14.0994713 C16.99665,13.6507228 20.8836188,13.6379041 24.7705875,13.6747696 C27.4176188,13.7000327 30.0641812,13.7991205 32.7093375,13.9032608 C33.5365875,13.9357287 34.3682437,14.0443602 35.1812438,14.2025825 C36.9728062,14.5515883 38.0091187,15.6700912 38.324775,17.4664889 C38.7518063,19.8969918 38.8635563,22.3509801 38.7738375,24.8059977 C38.7060562,26.6642433 38.51415,28.5194947 38.3211187,30.3703485 C38.108025,32.4131088 36.3359625,33.6229333 34.7399625,33.7278222 C31.1229,33.9657637 27.5018063,34.1345591 24.74865,34.2844538"/>
    <g transform="translate(21.094 19.295)">
      <mask id="youtube-f" fill="#fff">
        <use xlink:href="#youtube-d"/>
      </mask>
      <path fill="url(#youtube-e)" d="M0.00121875,9.19775439 C2.50246875,7.66521637 4.9425,6.16926316 7.45584375,4.62905263 L7.45584375,4.62905263 C4.94765625,3.09061988 2.508,1.5942924 0.00121875,0.0569824561 L0.00121875,0.0569824561 L0.00121875,9.19775439 Z" mask="url(#youtube-f)"/>
    </g>
  </g>
</svg>
